  0
SECTION
  2
HEADER
  9
$ANGBASE
  50
0.0
  9
$ANGDIR
  70
1
  9
$MEASUREMENT
  70
0
  0
ENDSEC
  0
SECTION
  2
TABLES
  0
TABLE
  2
LTYPE
  70
4
  0
LTYPE
  5
40F
  2
CONTINUOUS
  70
0
  3
Solid line
  72
65
  73
0
  40
0.0
  0
LTYPE
  5
410
  2
DASHDOT
 70
0
  3
Dash Dot ____ _ ____ _
 72
65
 73
4
 40
2.0
 49
1.25
 49
-0.25
 49
0.25
 49
-0.25
  0
LTYPE
  5
411
  2
DASHED
 70
0
  3
Dashed __ __ __ __ __
 72
65
 73
2
 40
0.75
 49
0.5
 49
-0.25
  0
LTYPE
  5
43B
  2
DOTTED
 70
0
  3
Dotted .  .  .  .
 72
65
 73
2
 40
0.2
 49
0.0
 49
-0.2
  0
ENDTAB
  0
TABLE
  2
STYLE
  70
4
  0
STYLE
  2
KICAD
  70
0
  40
0
  41
1
  42
1
  50
0
  71
0
  3
isocp.shx
  0
STYLE
  2
KICADB
  70
0
  40
0
  41
1
  42
1
  50
0
  71
0
  3
isocp.shx
  0
STYLE
  2
KICADI
  70
0
  40
0
  41
1
  42
1
  50
15
  71
0
  3
isocp.shx
  0
STYLE
  2
KICADBI
  70
0
  40
0
  41
1
  42
1
  50
15
  71
0
  3
isocp.shx
  0
ENDTAB
  0
TABLE
  2
LAYER
  70
1
  0
LAYER
  2
BLACK
  70
0
  62
7
  6
CONTINUOUS
  0
ENDTAB
  0
ENDSEC
  0
SECTION
  2
ENTITIES
0
LINE
8
BLACK
6
CONTINUOUS
10
1.68443
20
-1.04755
11
1.69541
21
-1.04994
0
LINE
8
BLACK
6
CONTINUOUS
10
1.69541
20
-1.04994
11
1.70594
21
-1.05387
0
LINE
8
BLACK
6
CONTINUOUS
10
1.70594
20
-1.05387
11
1.7158
21
-1.05925
0
LINE
8
BLACK
6
CONTINUOUS
10
1.7158
20
-1.05925
11
1.72479
21
-1.06598
0
LINE
8
BLACK
6
CONTINUOUS
10
1.72479
20
-1.06598
11
1.73274
21
-1.07393
0
LINE
8
BLACK
6
CONTINUOUS
10
1.73274
20
-1.07393
11
1.73947
21
-1.08292
0
LINE
8
BLACK
6
CONTINUOUS
10
1.73947
20
-1.08292
11
1.74485
21
-1.09278
0
LINE
8
BLACK
6
CONTINUOUS
10
1.74485
20
-1.09278
11
1.74878
21
-1.10331
0
LINE
8
BLACK
6
CONTINUOUS
10
1.74878
20
-1.10331
11
1.75117
21
-1.11429
0
LINE
8
BLACK
6
CONTINUOUS
10
1.75117
20
-1.11429
11
1.75197
21
-1.12549
0
LINE
8
BLACK
6
CONTINUOUS
10
1.75197
20
-1.12549
11
1.75117
21
-1.1367
0
LINE
8
BLACK
6
CONTINUOUS
10
1.75117
20
-1.1367
11
1.74878
21
-1.14768
0
LINE
8
BLACK
6
CONTINUOUS
10
1.74878
20
-1.14768
11
1.74485
21
-1.1582
0
LINE
8
BLACK
6
CONTINUOUS
10
1.74485
20
-1.1582
11
1.73947
21
-1.16806
0
LINE
8
BLACK
6
CONTINUOUS
10
1.73947
20
-1.16806
11
1.73274
21
-1.17706
0
LINE
8
BLACK
6
CONTINUOUS
10
1.73274
20
-1.17706
11
1.72479
21
-1.185
0
LINE
8
BLACK
6
CONTINUOUS
10
1.72479
20
-1.185
11
1.7158
21
-1.19173
0
LINE
8
BLACK
6
CONTINUOUS
10
1.7158
20
-1.19173
11
1.70594
21
-1.19712
0
LINE
8
BLACK
6
CONTINUOUS
10
1.70594
20
-1.19712
11
1.69541
21
-1.20104
0
LINE
8
BLACK
6
CONTINUOUS
10
1.69541
20
-1.20104
11
1.68443
21
-1.20343
0
LINE
8
BLACK
6
CONTINUOUS
10
1.68443
20
-1.20343
11
1.67323
21
-1.20423
0
LINE
8
BLACK
6
CONTINUOUS
10
1.67323
20
-1.20423
11
1.66202
21
-1.20343
0
LINE
8
BLACK
6
CONTINUOUS
10
1.66202
20
-1.20343
11
1.65104
21
-1.20104
0
LINE
8
BLACK
6
CONTINUOUS
10
1.65104
20
-1.20104
11
1.64052
21
-1.19712
0
LINE
8
BLACK
6
CONTINUOUS
10
1.64052
20
-1.19712
11
1.63066
21
-1.19173
0
LINE
8
BLACK
6
CONTINUOUS
10
1.63066
20
-1.19173
11
1.62166
21
-1.185
0
LINE
8
BLACK
6
CONTINUOUS
10
1.62166
20
-1.185
11
1.61372
21
-1.17706
0
LINE
8
BLACK
6
CONTINUOUS
10
1.61372
20
-1.17706
11
1.60699
21
-1.16806
0
LINE
8
BLACK
6
CONTINUOUS
10
1.60699
20
-1.16806
11
1.6016
21
-1.1582
0
LINE
8
BLACK
6
CONTINUOUS
10
1.6016
20
-1.1582
11
1.59768
21
-1.14768
0
LINE
8
BLACK
6
CONTINUOUS
10
1.59768
20
-1.14768
11
1.59529
21
-1.1367
0
LINE
8
BLACK
6
CONTINUOUS
10
1.59529
20
-1.1367
11
1.59449
21
-1.12549
0
LINE
8
BLACK
6
CONTINUOUS
10
1.59449
20
-1.12549
11
1.59529
21
-1.11429
0
LINE
8
BLACK
6
CONTINUOUS
10
1.59529
20
-1.11429
11
1.59768
21
-1.10331
0
LINE
8
BLACK
6
CONTINUOUS
10
1.59768
20
-1.10331
11
1.6016
21
-1.09278
0
LINE
8
BLACK
6
CONTINUOUS
10
1.6016
20
-1.09278
11
1.60699
21
-1.08292
0
LINE
8
BLACK
6
CONTINUOUS
10
1.60699
20
-1.08292
11
1.61372
21
-1.07393
0
LINE
8
BLACK
6
CONTINUOUS
10
1.61372
20
-1.07393
11
1.62166
21
-1.06598
0
LINE
8
BLACK
6
CONTINUOUS
10
1.62166
20
-1.06598
11
1.63066
21
-1.05925
0
LINE
8
BLACK
6
CONTINUOUS
10
1.63066
20
-1.05925
11
1.64052
21
-1.05387
0
LINE
8
BLACK
6
CONTINUOUS
10
1.64052
20
-1.05387
11
1.65104
21
-1.04994
0
LINE
8
BLACK
6
CONTINUOUS
10
1.65104
20
-1.04994
11
1.66202
21
-1.04755
0
LINE
8
BLACK
6
CONTINUOUS
10
1.66202
20
-1.04755
11
1.67323
21
-1.04675
0
LINE
8
BLACK
6
CONTINUOUS
10
1.67323
20
-1.04675
11
1.68443
21
-1.04755
0
LINE
8
BLACK
6
CONTINUOUS
10
0.846476
20
-1.12594
11
0.846476
21
-0.980787
0
LINE
8
BLACK
6
CONTINUOUS
10
0.846476
20
-0.980787
11
0.84713
21
-0.978346
0
LINE
8
BLACK
6
CONTINUOUS
10
0.84713
20
-0.978346
11
0.848917
21
-0.97656
0
LINE
8
BLACK
6
CONTINUOUS
10
0.848917
20
-0.97656
11
0.851358
21
-0.975906
0
LINE
8
BLACK
6
CONTINUOUS
10
0.851358
20
-0.975906
11
1.92637
21
-0.975906
0
LINE
8
BLACK
6
CONTINUOUS
10
1.92637
20
-0.975906
11
1.92881
21
-0.976555
0
LINE
8
BLACK
6
CONTINUOUS
10
1.92881
20
-0.976555
11
1.93059
21
-0.978331
0
LINE
8
BLACK
6
CONTINUOUS
10
1.93059
20
-0.978331
11
1.93126
21
-0.980761
0
LINE
8
BLACK
6
CONTINUOUS
10
1.93126
20
-0.980761
11
1.93151
21
-1.0286
0
LINE
8
BLACK
6
CONTINUOUS
10
1.93151
20
-1.0286
11
1.9333
21
-1.3604
0
LINE
8
BLACK
6
CONTINUOUS
10
1.9333
20
-1.3604
11
1.93278
21
-1.36262
0
LINE
8
BLACK
6
CONTINUOUS
10
1.93278
20
-1.36262
11
1.9313
21
-1.36437
0
LINE
8
BLACK
6
CONTINUOUS
10
1.9313
20
-1.36437
11
1.92919
21
-1.36525
0
LINE
8
BLACK
6
CONTINUOUS
10
1.92919
20
-1.36525
11
1.92692
21
-1.36507
0
LINE
8
BLACK
6
CONTINUOUS
10
1.92692
20
-1.36507
11
1.92497
21
-1.36388
0
LINE
8
BLACK
6
CONTINUOUS
10
1.92497
20
-1.36388
11
1.91933
21
-1.35824
0
LINE
8
BLACK
6
CONTINUOUS
10
1.91933
20
-1.35824
11
1.91172
21
-1.35291
0
LINE
8
BLACK
6
CONTINUOUS
10
1.91172
20
-1.35291
11
1.90329
21
-1.34898
0
LINE
8
BLACK
6
CONTINUOUS
10
1.90329
20
-1.34898
11
1.89488
21
-1.34673
0
LINE
8
BLACK
6
CONTINUOUS
10
1.89488
20
-1.34673
11
1.89488
21
-1.36718
0
LINE
8
BLACK
6
CONTINUOUS
10
1.89488
20
-1.36718
11
1.89538
21
-1.36729
0
LINE
8
BLACK
6
CONTINUOUS
10
1.89538
20
-1.36729
11
1.90177
21
-1.37013
0
LINE
8
BLACK
6
CONTINUOUS
10
1.90177
20
-1.37013
11
1.90743
21
-1.37425
0
LINE
8
BLACK
6
CONTINUOUS
10
1.90743
20
-1.37425
11
1.91211
21
-1.37944
0
LINE
8
BLACK
6
CONTINUOUS
10
1.91211
20
-1.37944
11
1.91561
21
-1.3855
0
LINE
8
BLACK
6
CONTINUOUS
10
1.91561
20
-1.3855
11
1.91777
21
-1.39216
0
LINE
8
BLACK
6
CONTINUOUS
10
1.91777
20
-1.39216
11
1.9185
21
-1.39911
0
LINE
8
BLACK
6
CONTINUOUS
10
1.9185
20
-1.39911
11
1.91777
21
-1.40607
0
LINE
8
BLACK
6
CONTINUOUS
10
1.91777
20
-1.40607
11
1.91561
21
-1.41273
0
LINE
8
BLACK
6
CONTINUOUS
10
1.91561
20
-1.41273
11
1.91211
21
-1.41878
0
LINE
8
BLACK
6
CONTINUOUS
10
1.91211
20
-1.41878
11
1.90743
21
-1.42398
0
LINE
8
BLACK
6
CONTINUOUS
10
1.90743
20
-1.42398
11
1.90177
21
-1.4281
0
LINE
8
BLACK
6
CONTINUOUS
10
1.90177
20
-1.4281
11
1.89538
21
-1.43094
0
LINE
8
BLACK
6
CONTINUOUS
10
1.89538
20
-1.43094
11
1.89488
21
-1.43105
0
LINE
8
BLACK
6
CONTINUOUS
10
1.89488
20
-1.43105
11
1.89488
21
-1.4515
0
LINE
8
BLACK
6
CONTINUOUS
10
1.89488
20
-1.4515
11
1.90329
21
-1.44925
0
LINE
8
BLACK
6
CONTINUOUS
10
1.90329
20
-1.44925
11
1.91172
21
-1.44532
0
LINE
8
BLACK
6
CONTINUOUS
10
1.91172
20
-1.44532
11
1.91933
21
-1.43998
0
LINE
8
BLACK
6
CONTINUOUS
10
1.91933
20
-1.43998
11
1.92538
21
-1.43393
0
LINE
8
BLACK
6
CONTINUOUS
10
1.92538
20
-1.43393
11
1.92732
21
-1.43275
0
LINE
8
BLACK
6
CONTINUOUS
10
1.92732
20
-1.43275
11
1.92959
21
-1.43256
0
LINE
8
BLACK
6
CONTINUOUS
10
1.92959
20
-1.43256
11
1.93169
21
-1.43343
0
LINE
8
BLACK
6
CONTINUOUS
10
1.93169
20
-1.43343
11
1.93318
21
-1.43515
0
LINE
8
BLACK
6
CONTINUOUS
10
1.93318
20
-1.43515
11
1.93372
21
-1.43736
0
LINE
8
BLACK
6
CONTINUOUS
10
1.93372
20
-1.43736
11
1.934
21
-1.48962
0
LINE
8
BLACK
6
CONTINUOUS
10
1.934
20
-1.48962
11
1.93363
21
-1.4915
0
LINE
8
BLACK
6
CONTINUOUS
10
1.93363
20
-1.4915
11
1.93257
21
-1.49309
0
LINE
8
BLACK
6
CONTINUOUS
10
1.93257
20
-1.49309
11
1.92662
21
-1.49904
0
LINE
8
BLACK
6
CONTINUOUS
10
1.92662
20
-1.49904
11
1.92504
21
-1.5001
0
LINE
8
BLACK
6
CONTINUOUS
10
1.92504
20
-1.5001
11
1.92317
21
-1.50047
0
LINE
8
BLACK
6
CONTINUOUS
10
1.92317
20
-1.50047
11
1.33762
21
-1.50047
0
LINE
8
BLACK
6
CONTINUOUS
10
1.33762
20
-1.50047
11
1.33506
21
-1.49975
0
LINE
8
BLACK
6
CONTINUOUS
10
1.33506
20
-1.49975
11
1.33326
21
-1.49778
0
LINE
8
BLACK
6
CONTINUOUS
10
1.33326
20
-1.49778
11
1.33276
21
-1.49517
0
LINE
8
BLACK
6
CONTINUOUS
10
1.33276
20
-1.49517
11
1.33289
21
-1.4936
0
LINE
8
BLACK
6
CONTINUOUS
10
1.33289
20
-1.4936
11
1.33211
21
-1.48468
0
LINE
8
BLACK
6
CONTINUOUS
10
1.33211
20
-1.48468
11
1.33211
21
-1.48468
0
LINE
8
BLACK
6
CONTINUOUS
10
1.33211
20
-1.48468
11
1.32979
21
-1.47602
0
LINE
8
BLACK
6
CONTINUOUS
10
1.32979
20
-1.47602
11
1.32601
21
-1.4679
0
LINE
8
BLACK
6
CONTINUOUS
10
1.32601
20
-1.4679
11
1.324
21
-1.46504
0
LINE
8
BLACK
6
CONTINUOUS
10
1.324
20
-1.46504
11
1.32087
21
-1.46057
0
LINE
8
BLACK
6
CONTINUOUS
10
1.32087
20
-1.46057
11
1.31763
21
-1.45733
0
LINE
8
BLACK
6
CONTINUOUS
10
1.31763
20
-1.45733
11
1.31453
21
-1.45423
0
LINE
8
BLACK
6
CONTINUOUS
10
1.31453
20
-1.45423
11
1.30719
21
-1.44909
0
LINE
8
BLACK
6
CONTINUOUS
10
1.30719
20
-1.44909
11
1.29907
21
-1.44531
0
LINE
8
BLACK
6
CONTINUOUS
10
1.29907
20
-1.44531
11
1.29042
21
-1.44299
0
LINE
8
BLACK
6
CONTINUOUS
10
1.29042
20
-1.44299
11
1.2815
21
-1.44221
0
LINE
8
BLACK
6
CONTINUOUS
10
1.2815
20
-1.44221
11
1.27257
21
-1.44299
0
LINE
8
BLACK
6
CONTINUOUS
10
1.27257
20
-1.44299
11
1.26392
21
-1.44531
0
LINE
8
BLACK
6
CONTINUOUS
10
1.26392
20
-1.44531
11
1.2558
21
-1.44909
0
LINE
8
BLACK
6
CONTINUOUS
10
1.2558
20
-1.44909
11
1.24846
21
-1.45423
0
LINE
8
BLACK
6
CONTINUOUS
10
1.24846
20
-1.45423
11
1.24212
21
-1.46057
0
LINE
8
BLACK
6
CONTINUOUS
10
1.24212
20
-1.46057
11
1.23699
21
-1.4679
0
LINE
8
BLACK
6
CONTINUOUS
10
1.23699
20
-1.4679
11
1.2367
21
-1.46852
0
LINE
8
BLACK
6
CONTINUOUS
10
1.2367
20
-1.46852
11
1.2349
21
-1.47058
0
LINE
8
BLACK
6
CONTINUOUS
10
1.2349
20
-1.47058
11
1.23227
21
-1.47134
0
LINE
8
BLACK
6
CONTINUOUS
10
1.23227
20
-1.47134
11
1.22965
21
-1.47058
0
LINE
8
BLACK
6
CONTINUOUS
10
1.22965
20
-1.47058
11
1.22785
21
-1.46852
0
LINE
8
BLACK
6
CONTINUOUS
10
1.22785
20
-1.46852
11
1.22756
21
-1.46791
0
LINE
8
BLACK
6
CONTINUOUS
10
1.22756
20
-1.46791
11
1.22555
21
-1.46504
0
LINE
8
BLACK
6
CONTINUOUS
10
1.22555
20
-1.46504
11
1.21114
21
-1.47945
0
LINE
8
BLACK
6
CONTINUOUS
10
1.21114
20
-1.47945
11
1.21145
21
-1.47994
0
LINE
8
BLACK
6
CONTINUOUS
10
1.21145
20
-1.47994
11
1.21378
21
-1.48659
0
LINE
8
BLACK
6
CONTINUOUS
10
1.21378
20
-1.48659
11
1.21457
21
-1.4936
0
LINE
8
BLACK
6
CONTINUOUS
10
1.21457
20
-1.4936
11
1.21378
21
-1.50061
0
LINE
8
BLACK
6
CONTINUOUS
10
1.21378
20
-1.50061
11
1.21145
21
-1.50727
0
LINE
8
BLACK
6
CONTINUOUS
10
1.21145
20
-1.50727
11
1.2077
21
-1.51324
0
LINE
8
BLACK
6
CONTINUOUS
10
1.2077
20
-1.51324
11
1.20271
21
-1.51823
0
LINE
8
BLACK
6
CONTINUOUS
10
1.20271
20
-1.51823
11
1.19674
21
-1.52198
0
LINE
8
BLACK
6
CONTINUOUS
10
1.19674
20
-1.52198
11
1.19008
21
-1.52431
0
LINE
8
BLACK
6
CONTINUOUS
10
1.19008
20
-1.52431
11
1.18307
21
-1.5251
0
LINE
8
BLACK
6
CONTINUOUS
10
1.18307
20
-1.5251
11
1.17606
21
-1.52431
0
LINE
8
BLACK
6
CONTINUOUS
10
1.17606
20
-1.52431
11
1.16941
21
-1.52198
0
LINE
8
BLACK
6
CONTINUOUS
10
1.16941
20
-1.52198
11
1.16343
21
-1.51823
0
LINE
8
BLACK
6
CONTINUOUS
10
1.16343
20
-1.51823
11
1.15845
21
-1.51324
0
LINE
8
BLACK
6
CONTINUOUS
10
1.15845
20
-1.51324
11
1.15469
21
-1.50727
0
LINE
8
BLACK
6
CONTINUOUS
10
1.15469
20
-1.50727
11
1.15236
21
-1.50061
0
LINE
8
BLACK
6
CONTINUOUS
10
1.15236
20
-1.50061
11
1.15157
21
-1.4936
0
LINE
8
BLACK
6
CONTINUOUS
10
1.15157
20
-1.4936
11
1.15236
21
-1.48659
0
LINE
8
BLACK
6
CONTINUOUS
10
1.15236
20
-1.48659
11
1.15469
21
-1.47994
0
LINE
8
BLACK
6
CONTINUOUS
10
1.15469
20
-1.47994
11
1.155
21
-1.47945
0
LINE
8
BLACK
6
CONTINUOUS
10
1.155
20
-1.47945
11
1.14059
21
-1.46504
0
LINE
8
BLACK
6
CONTINUOUS
10
1.14059
20
-1.46504
11
1.13858
21
-1.46791
0
LINE
8
BLACK
6
CONTINUOUS
10
1.13858
20
-1.46791
11
1.13479
21
-1.47603
0
LINE
8
BLACK
6
CONTINUOUS
10
1.13479
20
-1.47603
11
1.13247
21
-1.48468
0
LINE
8
BLACK
6
CONTINUOUS
10
1.13247
20
-1.48468
11
1.13169
21
-1.4936
0
LINE
8
BLACK
6
CONTINUOUS
10
1.13169
20
-1.4936
11
1.13247
21
-1.50252
0
LINE
8
BLACK
6
CONTINUOUS
10
1.13247
20
-1.50252
11
1.13479
21
-1.51117
0
LINE
8
BLACK
6
CONTINUOUS
10
1.13479
20
-1.51117
11
1.13858
21
-1.51929
0
LINE
8
BLACK
6
CONTINUOUS
10
1.13858
20
-1.51929
11
1.13893
21
-1.51979
0
LINE
8
BLACK
6
CONTINUOUS
10
1.13893
20
-1.51979
11
1.13979
21
-1.52212
0
LINE
8
BLACK
6
CONTINUOUS
10
1.13979
20
-1.52212
11
1.1394
21
-1.52456
0
LINE
8
BLACK
6
CONTINUOUS
10
1.1394
20
-1.52456
11
1.13786
21
-1.5265
0
LINE
8
BLACK
6
CONTINUOUS
10
1.13786
20
-1.5265
11
1.1375
21
-1.52677
0
LINE
8
BLACK
6
CONTINUOUS
10
1.1375
20
-1.52677
11
1.1341
21
-1.53131
0
LINE
8
BLACK
6
CONTINUOUS
10
1.1341
20
-1.53131
11
1.13212
21
-1.53661
0
LINE
8
BLACK
6
CONTINUOUS
10
1.13212
20
-1.53661
11
1.13187
21
-1.53896
0
LINE
8
BLACK
6
CONTINUOUS
10
1.13187
20
-1.53896
11
1.13187
21
-1.60572
0
LINE
8
BLACK
6
CONTINUOUS
10
1.13187
20
-1.60572
11
1.13212
21
-1.60807
0
LINE
8
BLACK
6
CONTINUOUS
10
1.13212
20
-1.60807
11
1.1331
21
-1.61068
0
LINE
8
BLACK
6
CONTINUOUS
10
1.1331
20
-1.61068
11
1.1341
21
-1.61338
0
LINE
8
BLACK
6
CONTINUOUS
10
1.1341
20
-1.61338
11
1.1375
21
-1.61792
0
LINE
8
BLACK
6
CONTINUOUS
10
1.1375
20
-1.61792
11
1.14203
21
-1.62131
0
LINE
8
BLACK
6
CONTINUOUS
10
1.14203
20
-1.62131
11
1.14367
21
-1.62192
0
LINE
8
BLACK
6
CONTINUOUS
10
1.14367
20
-1.62192
11
1.14583
21
-1.62351
0
LINE
8
BLACK
6
CONTINUOUS
10
1.14583
20
-1.62351
11
1.14682
21
-1.62601
0
LINE
8
BLACK
6
CONTINUOUS
10
1.14682
20
-1.62601
11
1.14635
21
-1.62865
0
LINE
8
BLACK
6
CONTINUOUS
10
1.14635
20
-1.62865
11
1.14455
21
-1.63064
0
LINE
8
BLACK
6
CONTINUOUS
10
1.14455
20
-1.63064
11
1.14197
21
-1.63138
0
LINE
8
BLACK
6
CONTINUOUS
10
1.14197
20
-1.63138
11
0.851358
21
-1.63138
0
LINE
8
BLACK
6
CONTINUOUS
10
0.851358
20
-1.63138
11
0.848917
21
-1.63072
0
LINE
8
BLACK
6
CONTINUOUS
10
0.848917
20
-1.63072
11
0.84713
21
-1.62894
0
LINE
8
BLACK
6
CONTINUOUS
10
0.84713
20
-1.62894
11
0.846476
21
-1.6265
0
LINE
8
BLACK
6
CONTINUOUS
10
0.846476
20
-1.6265
11
0.846476
21
-1.45733
0
LINE
8
BLACK
6
CONTINUOUS
10
0.846476
20
-1.45733
11
0.846476
21
-1.381
0
LINE
8
BLACK
6
CONTINUOUS
10
0.846476
20
-1.381
11
0.846476
21
-1.30468
0
LINE
8
BLACK
6
CONTINUOUS
10
0.846476
20
-1.30468
11
0.846476
21
-1.20226
0
LINE
8
BLACK
6
CONTINUOUS
10
0.846476
20
-1.20226
11
0.846476
21
-1.12594
0
LINE
8
BLACK
6
CONTINUOUS
10
1.8349
20
-1.41736
11
1.83883
21
-1.42579
0
LINE
8
BLACK
6
CONTINUOUS
10
1.83883
20
-1.42579
11
1.84417
21
-1.43341
0
LINE
8
BLACK
6
CONTINUOUS
10
1.84417
20
-1.43341
11
1.85074
21
-1.43998
0
LINE
8
BLACK
6
CONTINUOUS
10
1.85074
20
-1.43998
11
1.85836
21
-1.44532
0
LINE
8
BLACK
6
CONTINUOUS
10
1.85836
20
-1.44532
11
1.86679
21
-1.44925
0
LINE
8
BLACK
6
CONTINUOUS
10
1.86679
20
-1.44925
11
1.8752
21
-1.4515
0
LINE
8
BLACK
6
CONTINUOUS
10
1.8752
20
-1.4515
11
1.8752
21
-1.4515
0
LINE
8
BLACK
6
CONTINUOUS
10
1.8752
20
-1.4515
11
1.8752
21
-1.43105
0
LINE
8
BLACK
6
CONTINUOUS
10
1.8752
20
-1.43105
11
1.8747
21
-1.43094
0
LINE
8
BLACK
6
CONTINUOUS
10
1.8747
20
-1.43094
11
1.86831
21
-1.4281
0
LINE
8
BLACK
6
CONTINUOUS
10
1.86831
20
-1.4281
11
1.86265
21
-1.42398
0
LINE
8
BLACK
6
CONTINUOUS
10
1.86265
20
-1.42398
11
1.85797
21
-1.41878
0
LINE
8
BLACK
6
CONTINUOUS
10
1.85797
20
-1.41878
11
1.85447
21
-1.41273
0
LINE
8
BLACK
6
CONTINUOUS
10
1.85447
20
-1.41273
11
1.85324
21
-1.40896
0
LINE
8
BLACK
6
CONTINUOUS
10
1.85324
20
-1.40896
11
1.83265
21
-1.40896
0
LINE
8
BLACK
6
CONTINUOUS
10
1.83265
20
-1.40896
11
1.8349
21
-1.41736
0
LINE
8
BLACK
6
CONTINUOUS
10
1.53057
20
-1.33286
11
1.53474
21
-1.33843
0
LINE
8
BLACK
6
CONTINUOUS
10
1.53474
20
-1.33843
11
1.54013
21
-1.34829
0
LINE
8
BLACK
6
CONTINUOUS
10
1.54013
20
-1.34829
11
1.54405
21
-1.35882
0
LINE
8
BLACK
6
CONTINUOUS
10
1.54405
20
-1.35882
11
1.54644
21
-1.3698
0
LINE
8
BLACK
6
CONTINUOUS
10
1.54644
20
-1.3698
11
1.54724
21
-1.381
0
LINE
8
BLACK
6
CONTINUOUS
10
1.54724
20
-1.381
11
1.54644
21
-1.39221
0
LINE
8
BLACK
6
CONTINUOUS
10
1.54644
20
-1.39221
11
1.54405
21
-1.40319
0
LINE
8
BLACK
6
CONTINUOUS
10
1.54405
20
-1.40319
11
1.54013
21
-1.41371
0
LINE
8
BLACK
6
CONTINUOUS
10
1.54013
20
-1.41371
11
1.53474
21
-1.42357
0
LINE
8
BLACK
6
CONTINUOUS
10
1.53474
20
-1.42357
11
1.53057
21
-1.42915
0
LINE
8
BLACK
6
CONTINUOUS
10
1.53057
20
-1.42915
11
1.54471
21
-1.44329
0
LINE
8
BLACK
6
CONTINUOUS
10
1.54471
20
-1.44329
11
1.54471
21
-1.44329
0
LINE
8
BLACK
6
CONTINUOUS
10
1.54471
20
-1.44329
11
1.54829
21
-1.43897
0
LINE
8
BLACK
6
CONTINUOUS
10
1.54829
20
-1.43897
11
1.55493
21
-1.42851
0
LINE
8
BLACK
6
CONTINUOUS
10
1.55493
20
-1.42851
11
1.5602
21
-1.41731
0
LINE
8
BLACK
6
CONTINUOUS
10
1.5602
20
-1.41731
11
1.56291
21
-1.40896
0
LINE
8
BLACK
6
CONTINUOUS
10
1.56291
20
-1.40896
11
1.56403
21
-1.40553
0
LINE
8
BLACK
6
CONTINUOUS
10
1.56403
20
-1.40553
11
1.56635
21
-1.39336
0
LINE
8
BLACK
6
CONTINUOUS
10
1.56635
20
-1.39336
11
1.5666
21
-1.38927
0
LINE
8
BLACK
6
CONTINUOUS
10
1.5666
20
-1.38927
11
1.83265
21
-1.38927
0
LINE
8
BLACK
6
CONTINUOUS
10
1.83265
20
-1.38927
11
1.85324
21
-1.38927
0
LINE
8
BLACK
6
CONTINUOUS
10
1.85324
20
-1.38927
11
1.85447
21
-1.3855
0
LINE
8
BLACK
6
CONTINUOUS
10
1.85447
20
-1.3855
11
1.85797
21
-1.37944
0
LINE
8
BLACK
6
CONTINUOUS
10
1.85797
20
-1.37944
11
1.86265
21
-1.37425
0
LINE
8
BLACK
6
CONTINUOUS
10
1.86265
20
-1.37425
11
1.86831
21
-1.37013
0
LINE
8
BLACK
6
CONTINUOUS
10
1.86831
20
-1.37013
11
1.8747
21
-1.36729
0
LINE
8
BLACK
6
CONTINUOUS
10
1.8747
20
-1.36729
11
1.8752
21
-1.36718
0
LINE
8
BLACK
6
CONTINUOUS
10
1.8752
20
-1.36718
11
1.8752
21
-1.34673
0
LINE
8
BLACK
6
CONTINUOUS
10
1.8752
20
-1.34673
11
1.8752
21
-1.34673
0
LINE
8
BLACK
6
CONTINUOUS
10
1.8752
20
-1.34673
11
1.86679
21
-1.34898
0
LINE
8
BLACK
6
CONTINUOUS
10
1.86679
20
-1.34898
11
1.85836
21
-1.35291
0
LINE
8
BLACK
6
CONTINUOUS
10
1.85836
20
-1.35291
11
1.85074
21
-1.35824
0
LINE
8
BLACK
6
CONTINUOUS
10
1.85074
20
-1.35824
11
1.84417
21
-1.36482
0
LINE
8
BLACK
6
CONTINUOUS
10
1.84417
20
-1.36482
11
1.83883
21
-1.37244
0
LINE
8
BLACK
6
CONTINUOUS
10
1.83883
20
-1.37244
11
1.8349
21
-1.38087
0
LINE
8
BLACK
6
CONTINUOUS
10
1.8349
20
-1.38087
11
1.83265
21
-1.38927
0
LINE
8
BLACK
6
CONTINUOUS
10
1.83265
20
-1.38927
11
1.83265
21
-1.38927
0
LINE
8
BLACK
6
CONTINUOUS
10
1.83265
20
-1.38927
11
1.5666
21
-1.38927
0
LINE
8
BLACK
6
CONTINUOUS
10
1.5666
20
-1.38927
11
1.56712
21
-1.381
0
LINE
8
BLACK
6
CONTINUOUS
10
1.56712
20
-1.381
11
1.56635
21
-1.36864
0
LINE
8
BLACK
6
CONTINUOUS
10
1.56635
20
-1.36864
11
1.56403
21
-1.35648
0
LINE
8
BLACK
6
CONTINUOUS
10
1.56403
20
-1.35648
11
1.5602
21
-1.3447
0
LINE
8
BLACK
6
CONTINUOUS
10
1.5602
20
-1.3447
11
1.55493
21
-1.33349
0
LINE
8
BLACK
6
CONTINUOUS
10
1.55493
20
-1.33349
11
1.54829
21
-1.32304
0
LINE
8
BLACK
6
CONTINUOUS
10
1.54829
20
-1.32304
11
1.54471
21
-1.31871
0
LINE
8
BLACK
6
CONTINUOUS
10
1.54471
20
-1.31871
11
1.53057
21
-1.33286
0
LINE
8
BLACK
6
CONTINUOUS
10
1.36988
20
-1.381
11
1.37066
21
-1.39336
0
LINE
8
BLACK
6
CONTINUOUS
10
1.37066
20
-1.39336
11
1.37298
21
-1.40553
0
LINE
8
BLACK
6
CONTINUOUS
10
1.37298
20
-1.40553
11
1.37681
21
-1.41731
0
LINE
8
BLACK
6
CONTINUOUS
10
1.37681
20
-1.41731
11
1.38208
21
-1.42851
0
LINE
8
BLACK
6
CONTINUOUS
10
1.38208
20
-1.42851
11
1.38872
21
-1.43897
0
LINE
8
BLACK
6
CONTINUOUS
10
1.38872
20
-1.43897
11
1.39229
21
-1.44329
0
LINE
8
BLACK
6
CONTINUOUS
10
1.39229
20
-1.44329
11
1.40644
21
-1.42915
0
LINE
8
BLACK
6
CONTINUOUS
10
1.40644
20
-1.42915
11
1.40226
21
-1.42357
0
LINE
8
BLACK
6
CONTINUOUS
10
1.40226
20
-1.42357
11
1.39688
21
-1.41371
0
LINE
8
BLACK
6
CONTINUOUS
10
1.39688
20
-1.41371
11
1.39295
21
-1.40319
0
LINE
8
BLACK
6
CONTINUOUS
10
1.39295
20
-1.40319
11
1.39057
21
-1.39221
0
LINE
8
BLACK
6
CONTINUOUS
10
1.39057
20
-1.39221
11
1.38976
21
-1.381
0
LINE
8
BLACK
6
CONTINUOUS
10
1.38976
20
-1.381
11
1.39057
21
-1.3698
0
LINE
8
BLACK
6
CONTINUOUS
10
1.39057
20
-1.3698
11
1.39295
21
-1.35882
0
LINE
8
BLACK
6
CONTINUOUS
10
1.39295
20
-1.35882
11
1.39688
21
-1.34829
0
LINE
8
BLACK
6
CONTINUOUS
10
1.39688
20
-1.34829
11
1.40226
21
-1.33843
0
LINE
8
BLACK
6
CONTINUOUS
10
1.40226
20
-1.33843
11
1.40644
21
-1.33286
0
LINE
8
BLACK
6
CONTINUOUS
10
1.40644
20
-1.33286
11
1.39229
21
-1.31871
0
LINE
8
BLACK
6
CONTINUOUS
10
1.39229
20
-1.31871
11
1.39229
21
-1.31871
0
LINE
8
BLACK
6
CONTINUOUS
10
1.39229
20
-1.31871
11
1.38872
21
-1.32304
0
LINE
8
BLACK
6
CONTINUOUS
10
1.38872
20
-1.32304
11
1.38208
21
-1.33349
0
LINE
8
BLACK
6
CONTINUOUS
10
1.38208
20
-1.33349
11
1.37681
21
-1.3447
0
LINE
8
BLACK
6
CONTINUOUS
10
1.37681
20
-1.3447
11
1.37298
21
-1.35648
0
LINE
8
BLACK
6
CONTINUOUS
10
1.37298
20
-1.35648
11
1.37066
21
-1.36864
0
LINE
8
BLACK
6
CONTINUOUS
10
1.37066
20
-1.36864
11
1.36988
21
-1.381
0
LINE
8
BLACK
6
CONTINUOUS
10
1.53057
20
-1.15412
11
1.53474
21
-1.15969
0
LINE
8
BLACK
6
CONTINUOUS
10
1.53474
20
-1.15969
11
1.54013
21
-1.16955
0
LINE
8
BLACK
6
CONTINUOUS
10
1.54013
20
-1.16955
11
1.54405
21
-1.18008
0
LINE
8
BLACK
6
CONTINUOUS
10
1.54405
20
-1.18008
11
1.54644
21
-1.19106
0
LINE
8
BLACK
6
CONTINUOUS
10
1.54644
20
-1.19106
11
1.54724
21
-1.20226
0
LINE
8
BLACK
6
CONTINUOUS
10
1.54724
20
-1.20226
11
1.54644
21
-1.21347
0
LINE
8
BLACK
6
CONTINUOUS
10
1.54644
20
-1.21347
11
1.54405
21
-1.22445
0
LINE
8
BLACK
6
CONTINUOUS
10
1.54405
20
-1.22445
11
1.54013
21
-1.23497
0
LINE
8
BLACK
6
CONTINUOUS
10
1.54013
20
-1.23497
11
1.53474
21
-1.24483
0
LINE
8
BLACK
6
CONTINUOUS
10
1.53474
20
-1.24483
11
1.53057
21
-1.25041
0
LINE
8
BLACK
6
CONTINUOUS
10
1.53057
20
-1.25041
11
1.54471
21
-1.26455
0
LINE
8
BLACK
6
CONTINUOUS
10
1.54471
20
-1.26455
11
1.54471
21
-1.26455
0
LINE
8
BLACK
6
CONTINUOUS
10
1.54471
20
-1.26455
11
1.54829
21
-1.26023
0
LINE
8
BLACK
6
CONTINUOUS
10
1.54829
20
-1.26023
11
1.55493
21
-1.24977
0
LINE
8
BLACK
6
CONTINUOUS
10
1.55493
20
-1.24977
11
1.5602
21
-1.23857
0
LINE
8
BLACK
6
CONTINUOUS
10
1.5602
20
-1.23857
11
1.56403
21
-1.22679
0
LINE
8
BLACK
6
CONTINUOUS
10
1.56403
20
-1.22679
11
1.56635
21
-1.21462
0
LINE
8
BLACK
6
CONTINUOUS
10
1.56635
20
-1.21462
11
1.56712
21
-1.20226
0
LINE
8
BLACK
6
CONTINUOUS
10
1.56712
20
-1.20226
11
1.56635
21
-1.1899
0
LINE
8
BLACK
6
CONTINUOUS
10
1.56635
20
-1.1899
11
1.56403
21
-1.17774
0
LINE
8
BLACK
6
CONTINUOUS
10
1.56403
20
-1.17774
11
1.5602
21
-1.16596
0
LINE
8
BLACK
6
CONTINUOUS
10
1.5602
20
-1.16596
11
1.55493
21
-1.15475
0
LINE
8
BLACK
6
CONTINUOUS
10
1.55493
20
-1.15475
11
1.54829
21
-1.1443
0
LINE
8
BLACK
6
CONTINUOUS
10
1.54829
20
-1.1443
11
1.54471
21
-1.13997
0
LINE
8
BLACK
6
CONTINUOUS
10
1.54471
20
-1.13997
11
1.53057
21
-1.15412
0
LINE
8
BLACK
6
CONTINUOUS
10
1.36988
20
-1.20226
11
1.37066
21
-1.21462
0
LINE
8
BLACK
6
CONTINUOUS
10
1.37066
20
-1.21462
11
1.37298
21
-1.22679
0
LINE
8
BLACK
6
CONTINUOUS
10
1.37298
20
-1.22679
11
1.37681
21
-1.23857
0
LINE
8
BLACK
6
CONTINUOUS
10
1.37681
20
-1.23857
11
1.38208
21
-1.24977
0
LINE
8
BLACK
6
CONTINUOUS
10
1.38208
20
-1.24977
11
1.38872
21
-1.26023
0
LINE
8
BLACK
6
CONTINUOUS
10
1.38872
20
-1.26023
11
1.39229
21
-1.26455
0
LINE
8
BLACK
6
CONTINUOUS
10
1.39229
20
-1.26455
11
1.40644
21
-1.25041
0
LINE
8
BLACK
6
CONTINUOUS
10
1.40644
20
-1.25041
11
1.40226
21
-1.24483
0
LINE
8
BLACK
6
CONTINUOUS
10
1.40226
20
-1.24483
11
1.39688
21
-1.23497
0
LINE
8
BLACK
6
CONTINUOUS
10
1.39688
20
-1.23497
11
1.39295
21
-1.22445
0
LINE
8
BLACK
6
CONTINUOUS
10
1.39295
20
-1.22445
11
1.39057
21
-1.21347
0
LINE
8
BLACK
6
CONTINUOUS
10
1.39057
20
-1.21347
11
1.38976
21
-1.20226
0
LINE
8
BLACK
6
CONTINUOUS
10
1.38976
20
-1.20226
11
1.39057
21
-1.19106
0
LINE
8
BLACK
6
CONTINUOUS
10
1.39057
20
-1.19106
11
1.39295
21
-1.18008
0
LINE
8
BLACK
6
CONTINUOUS
10
1.39295
20
-1.18008
11
1.39688
21
-1.16955
0
LINE
8
BLACK
6
CONTINUOUS
10
1.39688
20
-1.16955
11
1.40226
21
-1.15969
0
LINE
8
BLACK
6
CONTINUOUS
10
1.40226
20
-1.15969
11
1.40644
21
-1.15412
0
LINE
8
BLACK
6
CONTINUOUS
10
1.40644
20
-1.15412
11
1.39229
21
-1.13997
0
LINE
8
BLACK
6
CONTINUOUS
10
1.39229
20
-1.13997
11
1.39229
21
-1.13997
0
LINE
8
BLACK
6
CONTINUOUS
10
1.39229
20
-1.13997
11
1.38872
21
-1.1443
0
LINE
8
BLACK
6
CONTINUOUS
10
1.38872
20
-1.1443
11
1.38208
21
-1.15475
0
LINE
8
BLACK
6
CONTINUOUS
10
1.38208
20
-1.15475
11
1.37681
21
-1.16596
0
LINE
8
BLACK
6
CONTINUOUS
10
1.37681
20
-1.16596
11
1.37298
21
-1.17774
0
LINE
8
BLACK
6
CONTINUOUS
10
1.37298
20
-1.17774
11
1.37066
21
-1.1899
0
LINE
8
BLACK
6
CONTINUOUS
10
1.37066
20
-1.1899
11
1.36988
21
-1.20226
0
LINE
8
BLACK
6
CONTINUOUS
10
1.57459
20
-1.12549
11
1.57537
21
-1.13785
0
LINE
8
BLACK
6
CONTINUOUS
10
1.57537
20
-1.13785
11
1.57769
21
-1.15002
0
LINE
8
BLACK
6
CONTINUOUS
10
1.57769
20
-1.15002
11
1.58152
21
-1.1618
0
LINE
8
BLACK
6
CONTINUOUS
10
1.58152
20
-1.1618
11
1.58679
21
-1.17301
0
LINE
8
BLACK
6
CONTINUOUS
10
1.58679
20
-1.17301
11
1.59343
21
-1.18347
0
LINE
8
BLACK
6
CONTINUOUS
10
1.59343
20
-1.18347
11
1.60132
21
-1.19302
0
LINE
8
BLACK
6
CONTINUOUS
10
1.60132
20
-1.19302
11
1.61035
21
-1.2015
0
LINE
8
BLACK
6
CONTINUOUS
10
1.61035
20
-1.2015
11
1.62037
21
-1.20878
0
LINE
8
BLACK
6
CONTINUOUS
10
1.62037
20
-1.20878
11
1.6258
21
-1.21176
0
LINE
8
BLACK
6
CONTINUOUS
10
1.6258
20
-1.21176
11
1.63123
21
-1.21474
0
LINE
8
BLACK
6
CONTINUOUS
10
1.63123
20
-1.21474
11
1.63487
21
-1.21618
0
LINE
8
BLACK
6
CONTINUOUS
10
1.63487
20
-1.21618
11
1.64275
21
-1.2193
0
LINE
8
BLACK
6
CONTINUOUS
10
1.64275
20
-1.2193
11
1.64689
21
-1.22037
0
LINE
8
BLACK
6
CONTINUOUS
10
1.64689
20
-1.22037
11
1.65475
21
-1.22238
0
LINE
8
BLACK
6
CONTINUOUS
10
1.65475
20
-1.22238
11
1.66393
21
-1.22354
0
LINE
8
BLACK
6
CONTINUOUS
10
1.66393
20
-1.22354
11
1.66703
21
-1.22394
0
LINE
8
BLACK
6
CONTINUOUS
10
1.66703
20
-1.22394
11
1.66703
21
-1.22394
0
LINE
8
BLACK
6
CONTINUOUS
10
1.66703
20
-1.22394
11
1.67942
21
-1.22394
0
LINE
8
BLACK
6
CONTINUOUS
10
1.67942
20
-1.22394
11
1.67942
21
-1.22394
0
LINE
8
BLACK
6
CONTINUOUS
10
1.67942
20
-1.22394
11
1.68218
21
-1.22359
0
LINE
8
BLACK
6
CONTINUOUS
10
1.68218
20
-1.22359
11
1.69171
21
-1.22238
0
LINE
8
BLACK
6
CONTINUOUS
10
1.69171
20
-1.22238
11
1.70371
21
-1.2193
0
LINE
8
BLACK
6
CONTINUOUS
10
1.70371
20
-1.2193
11
1.71523
21
-1.21474
0
LINE
8
BLACK
6
CONTINUOUS
10
1.71523
20
-1.21474
11
1.72608
21
-1.20878
0
LINE
8
BLACK
6
CONTINUOUS
10
1.72608
20
-1.20878
11
1.73505
21
-1.20226
0
LINE
8
BLACK
6
CONTINUOUS
10
1.73505
20
-1.20226
11
1.7361
21
-1.2015
0
LINE
8
BLACK
6
CONTINUOUS
10
1.7361
20
-1.2015
11
1.74513
21
-1.19302
0
LINE
8
BLACK
6
CONTINUOUS
10
1.74513
20
-1.19302
11
1.74513
21
-1.19302
0
LINE
8
BLACK
6
CONTINUOUS
10
1.74513
20
-1.19302
11
1.74513
21
-1.19302
0
LINE
8
BLACK
6
CONTINUOUS
10
1.74513
20
-1.19302
11
1.75303
21
-1.18347
0
LINE
8
BLACK
6
CONTINUOUS
10
1.75303
20
-1.18347
11
1.75967
21
-1.17301
0
LINE
8
BLACK
6
CONTINUOUS
10
1.75967
20
-1.17301
11
1.76494
21
-1.1618
0
LINE
8
BLACK
6
CONTINUOUS
10
1.76494
20
-1.1618
11
1.76877
21
-1.15002
0
LINE
8
BLACK
6
CONTINUOUS
10
1.76877
20
-1.15002
11
1.77109
21
-1.13785
0
LINE
8
BLACK
6
CONTINUOUS
10
1.77109
20
-1.13785
11
1.77187
21
-1.12549
0
LINE
8
BLACK
6
CONTINUOUS
10
1.77187
20
-1.12549
11
1.77109
21
-1.11313
0
LINE
8
BLACK
6
CONTINUOUS
10
1.77109
20
-1.11313
11
1.76877
21
-1.10096
0
LINE
8
BLACK
6
CONTINUOUS
10
1.76877
20
-1.10096
11
1.76494
21
-1.08918
0
LINE
8
BLACK
6
CONTINUOUS
10
1.76494
20
-1.08918
11
1.75967
21
-1.07797
0
LINE
8
BLACK
6
CONTINUOUS
10
1.75967
20
-1.07797
11
1.75303
21
-1.06751
0
LINE
8
BLACK
6
CONTINUOUS
10
1.75303
20
-1.06751
11
1.74513
21
-1.05797
0
LINE
8
BLACK
6
CONTINUOUS
10
1.74513
20
-1.05797
11
1.74513
21
-1.05797
0
LINE
8
BLACK
6
CONTINUOUS
10
1.74513
20
-1.05797
11
1.7361
21
-1.04949
0
LINE
8
BLACK
6
CONTINUOUS
10
1.7361
20
-1.04949
11
1.72608
21
-1.04221
0
LINE
8
BLACK
6
CONTINUOUS
10
1.72608
20
-1.04221
11
1.71523
21
-1.03624
0
LINE
8
BLACK
6
CONTINUOUS
10
1.71523
20
-1.03624
11
1.70371
21
-1.03168
0
LINE
8
BLACK
6
CONTINUOUS
10
1.70371
20
-1.03168
11
1.69171
21
-1.0286
0
LINE
8
BLACK
6
CONTINUOUS
10
1.69171
20
-1.0286
11
1.67942
21
-1.02705
0
LINE
8
BLACK
6
CONTINUOUS
10
1.67942
20
-1.02705
11
1.67942
21
-1.02705
0
LINE
8
BLACK
6
CONTINUOUS
10
1.67942
20
-1.02705
11
1.66703
21
-1.02705
0
LINE
8
BLACK
6
CONTINUOUS
10
1.66703
20
-1.02705
11
1.66703
21
-1.02705
0
LINE
8
BLACK
6
CONTINUOUS
10
1.66703
20
-1.02705
11
1.65475
21
-1.0286
0
LINE
8
BLACK
6
CONTINUOUS
10
1.65475
20
-1.0286
11
1.64275
21
-1.03168
0
LINE
8
BLACK
6
CONTINUOUS
10
1.64275
20
-1.03168
11
1.63123
21
-1.03624
0
LINE
8
BLACK
6
CONTINUOUS
10
1.63123
20
-1.03624
11
1.62037
21
-1.04221
0
LINE
8
BLACK
6
CONTINUOUS
10
1.62037
20
-1.04221
11
1.61035
21
-1.04949
0
LINE
8
BLACK
6
CONTINUOUS
10
1.61035
20
-1.04949
11
1.60132
21
-1.05797
0
LINE
8
BLACK
6
CONTINUOUS
10
1.60132
20
-1.05797
11
1.59343
21
-1.06751
0
LINE
8
BLACK
6
CONTINUOUS
10
1.59343
20
-1.06751
11
1.58679
21
-1.07797
0
LINE
8
BLACK
6
CONTINUOUS
10
1.58679
20
-1.07797
11
1.58152
21
-1.08918
0
LINE
8
BLACK
6
CONTINUOUS
10
1.58152
20
-1.08918
11
1.57769
21
-1.10096
0
LINE
8
BLACK
6
CONTINUOUS
10
1.57769
20
-1.10096
11
1.57537
21
-1.11313
0
LINE
8
BLACK
6
CONTINUOUS
10
1.57537
20
-1.11313
11
1.57459
21
-1.12549
0
LINE
8
BLACK
6
CONTINUOUS
10
1.4061
20
-1.45733
11
1.4061
21
-1.45733
0
LINE
8
BLACK
6
CONTINUOUS
10
1.4061
20
-1.45733
11
1.41566
21
-1.46427
0
LINE
8
BLACK
6
CONTINUOUS
10
1.41566
20
-1.46427
11
1.42651
21
-1.47024
0
LINE
8
BLACK
6
CONTINUOUS
10
1.42651
20
-1.47024
11
1.43803
21
-1.4748
0
LINE
8
BLACK
6
CONTINUOUS
10
1.43803
20
-1.4748
11
1.45002
21
-1.47788
0
LINE
8
BLACK
6
CONTINUOUS
10
1.45002
20
-1.47788
11
1.46231
21
-1.47943
0
LINE
8
BLACK
6
CONTINUOUS
10
1.46231
20
-1.47943
11
1.4747
21
-1.47943
0
LINE
8
BLACK
6
CONTINUOUS
10
1.4747
20
-1.47943
11
1.48698
21
-1.47788
0
LINE
8
BLACK
6
CONTINUOUS
10
1.48698
20
-1.47788
11
1.49898
21
-1.4748
0
LINE
8
BLACK
6
CONTINUOUS
10
1.49898
20
-1.4748
11
1.51049
21
-1.47024
0
LINE
8
BLACK
6
CONTINUOUS
10
1.51049
20
-1.47024
11
1.52135
21
-1.46427
0
LINE
8
BLACK
6
CONTINUOUS
10
1.52135
20
-1.46427
11
1.53091
21
-1.45733
0
LINE
8
BLACK
6
CONTINUOUS
10
1.53091
20
-1.45733
11
1.53091
21
-1.45733
0
LINE
8
BLACK
6
CONTINUOUS
10
1.53091
20
-1.45733
11
1.51665
21
-1.44307
0
LINE
8
BLACK
6
CONTINUOUS
10
1.51665
20
-1.44307
11
1.51107
21
-1.44724
0
LINE
8
BLACK
6
CONTINUOUS
10
1.51107
20
-1.44724
11
1.50121
21
-1.45263
0
LINE
8
BLACK
6
CONTINUOUS
10
1.50121
20
-1.45263
11
1.49069
21
-1.45655
0
LINE
8
BLACK
6
CONTINUOUS
10
1.49069
20
-1.45655
11
1.47971
21
-1.45894
0
LINE
8
BLACK
6
CONTINUOUS
10
1.47971
20
-1.45894
11
1.4685
21
-1.45974
0
LINE
8
BLACK
6
CONTINUOUS
10
1.4685
20
-1.45974
11
1.4573
21
-1.45894
0
LINE
8
BLACK
6
CONTINUOUS
10
1.4573
20
-1.45894
11
1.44632
21
-1.45655
0
LINE
8
BLACK
6
CONTINUOUS
10
1.44632
20
-1.45655
11
1.43579
21
-1.45263
0
LINE
8
BLACK
6
CONTINUOUS
10
1.43579
20
-1.45263
11
1.42593
21
-1.44724
0
LINE
8
BLACK
6
CONTINUOUS
10
1.42593
20
-1.44724
11
1.42036
21
-1.44307
0
LINE
8
BLACK
6
CONTINUOUS
10
1.42036
20
-1.44307
11
1.4061
21
-1.45733
0
LINE
8
BLACK
6
CONTINUOUS
10
1.04421
20
-1.44307
11
1.03863
21
-1.44724
0
LINE
8
BLACK
6
CONTINUOUS
10
1.03863
20
-1.44724
11
1.02877
21
-1.45263
0
LINE
8
BLACK
6
CONTINUOUS
10
1.02877
20
-1.45263
11
1.01825
21
-1.45655
0
LINE
8
BLACK
6
CONTINUOUS
10
1.01825
20
-1.45655
11
1.00727
21
-1.45894
0
LINE
8
BLACK
6
CONTINUOUS
10
1.00727
20
-1.45894
11
0.996063
21
-1.45974
0
LINE
8
BLACK
6
CONTINUOUS
10
0.996063
20
-1.45974
11
0.984857
21
-1.45894
0
LINE
8
BLACK
6
CONTINUOUS
10
0.984857
20
-1.45894
11
0.973879
21
-1.45655
0
LINE
8
BLACK
6
CONTINUOUS
10
0.973879
20
-1.45655
11
0.963353
21
-1.45263
0
LINE
8
BLACK
6
CONTINUOUS
10
0.963353
20
-1.45263
11
0.953493
21
-1.44724
0
LINE
8
BLACK
6
CONTINUOUS
10
0.953493
20
-1.44724
11
0.947916
21
-1.44307
0
LINE
8
BLACK
6
CONTINUOUS
10
0.947916
20
-1.44307
11
0.93366
21
-1.45733
0
LINE
8
BLACK
6
CONTINUOUS
10
0.93366
20
-1.45733
11
0.93366
21
-1.45733
0
LINE
8
BLACK
6
CONTINUOUS
10
0.93366
20
-1.45733
11
0.94322
21
-1.46427
0
LINE
8
BLACK
6
CONTINUOUS
10
0.94322
20
-1.46427
11
0.954073
21
-1.47024
0
LINE
8
BLACK
6
CONTINUOUS
10
0.954073
20
-1.47024
11
0.965588
21
-1.4748
0
LINE
8
BLACK
6
CONTINUOUS
10
0.965588
20
-1.4748
11
0.977583
21
-1.47788
0
LINE
8
BLACK
6
CONTINUOUS
10
0.977583
20
-1.47788
11
0.989871
21
-1.47943
0
LINE
8
BLACK
6
CONTINUOUS
10
0.989871
20
-1.47943
11
1.00226
21
-1.47943
0
LINE
8
BLACK
6
CONTINUOUS
10
1.00226
20
-1.47943
11
1.01454
21
-1.47788
0
LINE
8
BLACK
6
CONTINUOUS
10
1.01454
20
-1.47788
11
1.02654
21
-1.4748
0
LINE
8
BLACK
6
CONTINUOUS
10
1.02654
20
-1.4748
11
1.03805
21
-1.47024
0
LINE
8
BLACK
6
CONTINUOUS
10
1.03805
20
-1.47024
11
1.04891
21
-1.46427
0
LINE
8
BLACK
6
CONTINUOUS
10
1.04891
20
-1.46427
11
1.05847
21
-1.45733
0
LINE
8
BLACK
6
CONTINUOUS
10
1.05847
20
-1.45733
11
1.05847
21
-1.45733
0
LINE
8
BLACK
6
CONTINUOUS
10
1.05847
20
-1.45733
11
1.05226
21
-1.45112
0
LINE
8
BLACK
6
CONTINUOUS
10
1.05226
20
-1.45112
11
1.04421
21
-1.44307
0
LINE
8
BLACK
6
CONTINUOUS
10
1.15451
20
-1.45112
11
1.16892
21
-1.46553
0
LINE
8
BLACK
6
CONTINUOUS
10
1.16892
20
-1.46553
11
1.16941
21
-1.46523
0
LINE
8
BLACK
6
CONTINUOUS
10
1.16941
20
-1.46523
11
1.17606
21
-1.4629
0
LINE
8
BLACK
6
CONTINUOUS
10
1.17606
20
-1.4629
11
1.18307
21
-1.46211
0
LINE
8
BLACK
6
CONTINUOUS
10
1.18307
20
-1.46211
11
1.19008
21
-1.4629
0
LINE
8
BLACK
6
CONTINUOUS
10
1.19008
20
-1.4629
11
1.19674
21
-1.46523
0
LINE
8
BLACK
6
CONTINUOUS
10
1.19674
20
-1.46523
11
1.19722
21
-1.46553
0
LINE
8
BLACK
6
CONTINUOUS
10
1.19722
20
-1.46553
11
1.21163
21
-1.45112
0
LINE
8
BLACK
6
CONTINUOUS
10
1.21163
20
-1.45112
11
1.21163
21
-1.45112
0
LINE
8
BLACK
6
CONTINUOUS
10
1.21163
20
-1.45112
11
1.20876
21
-1.44911
0
LINE
8
BLACK
6
CONTINUOUS
10
1.20876
20
-1.44911
11
1.20064
21
-1.44532
0
LINE
8
BLACK
6
CONTINUOUS
10
1.20064
20
-1.44532
11
1.19199
21
-1.44301
0
LINE
8
BLACK
6
CONTINUOUS
10
1.19199
20
-1.44301
11
1.18307
21
-1.44223
0
LINE
8
BLACK
6
CONTINUOUS
10
1.18307
20
-1.44223
11
1.17415
21
-1.44301
0
LINE
8
BLACK
6
CONTINUOUS
10
1.17415
20
-1.44301
11
1.1655
21
-1.44532
0
LINE
8
BLACK
6
CONTINUOUS
10
1.1655
20
-1.44532
11
1.15738
21
-1.44911
0
LINE
8
BLACK
6
CONTINUOUS
10
1.15738
20
-1.44911
11
1.15451
21
-1.45112
0
LINE
8
BLACK
6
CONTINUOUS
10
1.15451
20
-1.45112
11
1.15451
21
-1.45112
0
LINE
8
BLACK
6
CONTINUOUS
10
1.09468
20
-1.381
11
1.09391
21
-1.36864
0
LINE
8
BLACK
6
CONTINUOUS
10
1.09391
20
-1.36864
11
1.09158
21
-1.35648
0
LINE
8
BLACK
6
CONTINUOUS
10
1.09158
20
-1.35648
11
1.08776
21
-1.3447
0
LINE
8
BLACK
6
CONTINUOUS
10
1.08776
20
-1.3447
11
1.08248
21
-1.33349
0
LINE
8
BLACK
6
CONTINUOUS
10
1.08248
20
-1.33349
11
1.07585
21
-1.32304
0
LINE
8
BLACK
6
CONTINUOUS
10
1.07585
20
-1.32304
11
1.07227
21
-1.31871
0
LINE
8
BLACK
6
CONTINUOUS
10
1.07227
20
-1.31871
11
1.05813
21
-1.33286
0
LINE
8
BLACK
6
CONTINUOUS
10
1.05813
20
-1.33286
11
1.0623
21
-1.33843
0
LINE
8
BLACK
6
CONTINUOUS
10
1.0623
20
-1.33843
11
1.06769
21
-1.34829
0
LINE
8
BLACK
6
CONTINUOUS
10
1.06769
20
-1.34829
11
1.07161
21
-1.35882
0
LINE
8
BLACK
6
CONTINUOUS
10
1.07161
20
-1.35882
11
1.074
21
-1.3698
0
LINE
8
BLACK
6
CONTINUOUS
10
1.074
20
-1.3698
11
1.0748
21
-1.381
0
LINE
8
BLACK
6
CONTINUOUS
10
1.0748
20
-1.381
11
1.074
21
-1.39221
0
LINE
8
BLACK
6
CONTINUOUS
10
1.074
20
-1.39221
11
1.07161
21
-1.40319
0
LINE
8
BLACK
6
CONTINUOUS
10
1.07161
20
-1.40319
11
1.06769
21
-1.41371
0
LINE
8
BLACK
6
CONTINUOUS
10
1.06769
20
-1.41371
11
1.0623
21
-1.42357
0
LINE
8
BLACK
6
CONTINUOUS
10
1.0623
20
-1.42357
11
1.05813
21
-1.42915
0
LINE
8
BLACK
6
CONTINUOUS
10
1.05813
20
-1.42915
11
1.07227
21
-1.44329
0
LINE
8
BLACK
6
CONTINUOUS
10
1.07227
20
-1.44329
11
1.07227
21
-1.44329
0
LINE
8
BLACK
6
CONTINUOUS
10
1.07227
20
-1.44329
11
1.07585
21
-1.43897
0
LINE
8
BLACK
6
CONTINUOUS
10
1.07585
20
-1.43897
11
1.08248
21
-1.42851
0
LINE
8
BLACK
6
CONTINUOUS
10
1.08248
20
-1.42851
11
1.08776
21
-1.41731
0
LINE
8
BLACK
6
CONTINUOUS
10
1.08776
20
-1.41731
11
1.09158
21
-1.40553
0
LINE
8
BLACK
6
CONTINUOUS
10
1.09158
20
-1.40553
11
1.09391
21
-1.39336
0
LINE
8
BLACK
6
CONTINUOUS
10
1.09391
20
-1.39336
11
1.09468
21
-1.381
0
LINE
8
BLACK
6
CONTINUOUS
10
0.897443
20
-1.381
11
0.898221
21
-1.39336
0
LINE
8
BLACK
6
CONTINUOUS
10
0.898221
20
-1.39336
11
0.900541
21
-1.40553
0
LINE
8
BLACK
6
CONTINUOUS
10
0.900541
20
-1.40553
11
0.904369
21
-1.41731
0
LINE
8
BLACK
6
CONTINUOUS
10
0.904369
20
-1.41731
11
0.909642
21
-1.42851
0
LINE
8
BLACK
6
CONTINUOUS
10
0.909642
20
-1.42851
11
0.916278
21
-1.43897
0
LINE
8
BLACK
6
CONTINUOUS
10
0.916278
20
-1.43897
11
0.919854
21
-1.44329
0
LINE
8
BLACK
6
CONTINUOUS
10
0.919854
20
-1.44329
11
0.933997
21
-1.42915
0
LINE
8
BLACK
6
CONTINUOUS
10
0.933997
20
-1.42915
11
0.929823
21
-1.42357
0
LINE
8
BLACK
6
CONTINUOUS
10
0.929823
20
-1.42357
11
0.924438
21
-1.41371
0
LINE
8
BLACK
6
CONTINUOUS
10
0.924438
20
-1.41371
11
0.920512
21
-1.40319
0
LINE
8
BLACK
6
CONTINUOUS
10
0.920512
20
-1.40319
11
0.918124
21
-1.39221
0
LINE
8
BLACK
6
CONTINUOUS
10
0.918124
20
-1.39221
11
0.917323
21
-1.381
0
LINE
8
BLACK
6
CONTINUOUS
10
0.917323
20
-1.381
11
0.918124
21
-1.3698
0
LINE
8
BLACK
6
CONTINUOUS
10
0.918124
20
-1.3698
11
0.920512
21
-1.35882
0
LINE
8
BLACK
6
CONTINUOUS
10
0.920512
20
-1.35882
11
0.924438
21
-1.34829
0
LINE
8
BLACK
6
CONTINUOUS
10
0.924438
20
-1.34829
11
0.929823
21
-1.33843
0
LINE
8
BLACK
6
CONTINUOUS
10
0.929823
20
-1.33843
11
0.933997
21
-1.33286
0
LINE
8
BLACK
6
CONTINUOUS
10
0.933997
20
-1.33286
11
0.919854
21
-1.31871
0
LINE
8
BLACK
6
CONTINUOUS
10
0.919854
20
-1.31871
11
0.919854
21
-1.31871
0
LINE
8
BLACK
6
CONTINUOUS
10
0.919854
20
-1.31871
11
0.916278
21
-1.32304
0
LINE
8
BLACK
6
CONTINUOUS
10
0.916278
20
-1.32304
11
0.909642
21
-1.33349
0
LINE
8
BLACK
6
CONTINUOUS
10
0.909642
20
-1.33349
11
0.904369
21
-1.3447
0
LINE
8
BLACK
6
CONTINUOUS
10
0.904369
20
-1.3447
11
0.900541
21
-1.35648
0
LINE
8
BLACK
6
CONTINUOUS
10
0.900541
20
-1.35648
11
0.898221
21
-1.36864
0
LINE
8
BLACK
6
CONTINUOUS
10
0.898221
20
-1.36864
11
0.897443
21
-1.381
0
LINE
8
BLACK
6
CONTINUOUS
10
1.4061
20
-1.30468
11
1.42036
21
-1.31894
0
LINE
8
BLACK
6
CONTINUOUS
10
1.42036
20
-1.31894
11
1.42593
21
-1.31476
0
LINE
8
BLACK
6
CONTINUOUS
10
1.42593
20
-1.31476
11
1.43579
21
-1.30938
0
LINE
8
BLACK
6
CONTINUOUS
10
1.43579
20
-1.30938
11
1.44632
21
-1.30545
0
LINE
8
BLACK
6
CONTINUOUS
10
1.44632
20
-1.30545
11
1.4573
21
-1.30307
0
LINE
8
BLACK
6
CONTINUOUS
10
1.4573
20
-1.30307
11
1.4685
21
-1.30226
0
LINE
8
BLACK
6
CONTINUOUS
10
1.4685
20
-1.30226
11
1.47971
21
-1.30307
0
LINE
8
BLACK
6
CONTINUOUS
10
1.47971
20
-1.30307
11
1.49069
21
-1.30545
0
LINE
8
BLACK
6
CONTINUOUS
10
1.49069
20
-1.30545
11
1.50121
21
-1.30938
0
LINE
8
BLACK
6
CONTINUOUS
10
1.50121
20
-1.30938
11
1.51107
21
-1.31476
0
LINE
8
BLACK
6
CONTINUOUS
10
1.51107
20
-1.31476
11
1.51665
21
-1.31894
0
LINE
8
BLACK
6
CONTINUOUS
10
1.51665
20
-1.31894
11
1.53091
21
-1.30468
0
LINE
8
BLACK
6
CONTINUOUS
10
1.53091
20
-1.30468
11
1.53091
21
-1.30468
0
LINE
8
BLACK
6
CONTINUOUS
10
1.53091
20
-1.30468
11
1.52135
21
-1.29774
0
LINE
8
BLACK
6
CONTINUOUS
10
1.52135
20
-1.29774
11
1.51803
21
-1.29591
0
LINE
8
BLACK
6
CONTINUOUS
10
1.51803
20
-1.29591
11
1.51618
21
-1.29412
0
LINE
8
BLACK
6
CONTINUOUS
10
1.51618
20
-1.29412
11
1.5155
21
-1.29163
0
LINE
8
BLACK
6
CONTINUOUS
10
1.5155
20
-1.29163
11
1.51618
21
-1.28915
0
LINE
8
BLACK
6
CONTINUOUS
10
1.51618
20
-1.28915
11
1.51803
21
-1.28736
0
LINE
8
BLACK
6
CONTINUOUS
10
1.51803
20
-1.28736
11
1.52135
21
-1.28553
0
LINE
8
BLACK
6
CONTINUOUS
10
1.52135
20
-1.28553
11
1.53091
21
-1.27859
0
LINE
8
BLACK
6
CONTINUOUS
10
1.53091
20
-1.27859
11
1.53091
21
-1.27859
0
LINE
8
BLACK
6
CONTINUOUS
10
1.53091
20
-1.27859
11
1.51665
21
-1.26433
0
LINE
8
BLACK
6
CONTINUOUS
10
1.51665
20
-1.26433
11
1.51107
21
-1.2685
0
LINE
8
BLACK
6
CONTINUOUS
10
1.51107
20
-1.2685
11
1.50121
21
-1.27389
0
LINE
8
BLACK
6
CONTINUOUS
10
1.50121
20
-1.27389
11
1.49069
21
-1.27781
0
LINE
8
BLACK
6
CONTINUOUS
10
1.49069
20
-1.27781
11
1.47971
21
-1.2802
0
LINE
8
BLACK
6
CONTINUOUS
10
1.47971
20
-1.2802
11
1.4685
21
-1.281
0
LINE
8
BLACK
6
CONTINUOUS
10
1.4685
20
-1.281
11
1.4573
21
-1.2802
0
LINE
8
BLACK
6
CONTINUOUS
10
1.4573
20
-1.2802
11
1.44632
21
-1.27781
0
LINE
8
BLACK
6
CONTINUOUS
10
1.44632
20
-1.27781
11
1.43579
21
-1.27389
0
LINE
8
BLACK
6
CONTINUOUS
10
1.43579
20
-1.27389
11
1.42593
21
-1.2685
0
LINE
8
BLACK
6
CONTINUOUS
10
1.42593
20
-1.2685
11
1.42036
21
-1.26433
0
LINE
8
BLACK
6
CONTINUOUS
10
1.42036
20
-1.26433
11
1.4061
21
-1.27859
0
LINE
8
BLACK
6
CONTINUOUS
10
1.4061
20
-1.27859
11
1.4061
21
-1.27859
0
LINE
8
BLACK
6
CONTINUOUS
10
1.4061
20
-1.27859
11
1.41566
21
-1.28553
0
LINE
8
BLACK
6
CONTINUOUS
10
1.41566
20
-1.28553
11
1.41898
21
-1.28736
0
LINE
8
BLACK
6
CONTINUOUS
10
1.41898
20
-1.28736
11
1.42083
21
-1.28915
0
LINE
8
BLACK
6
CONTINUOUS
10
1.42083
20
-1.28915
11
1.42151
21
-1.29163
0
LINE
8
BLACK
6
CONTINUOUS
10
1.42151
20
-1.29163
11
1.42083
21
-1.29412
0
LINE
8
BLACK
6
CONTINUOUS
10
1.42083
20
-1.29412
11
1.41898
21
-1.29591
0
LINE
8
BLACK
6
CONTINUOUS
10
1.41898
20
-1.29591
11
1.41566
21
-1.29774
0
LINE
8
BLACK
6
CONTINUOUS
10
1.41566
20
-1.29774
11
1.4061
21
-1.30468
0
LINE
8
BLACK
6
CONTINUOUS
10
1.4061
20
-1.30468
11
1.4061
21
-1.30468
0
LINE
8
BLACK
6
CONTINUOUS
10
0.93366
20
-1.30468
11
0.947916
21
-1.31894
0
LINE
8
BLACK
6
CONTINUOUS
10
0.947916
20
-1.31894
11
0.953493
21
-1.31476
0
LINE
8
BLACK
6
CONTINUOUS
10
0.953493
20
-1.31476
11
0.963353
21
-1.30938
0
LINE
8
BLACK
6
CONTINUOUS
10
0.963353
20
-1.30938
11
0.973879
21
-1.30545
0
LINE
8
BLACK
6
CONTINUOUS
10
0.973879
20
-1.30545
11
0.984857
21
-1.30307
0
LINE
8
BLACK
6
CONTINUOUS
10
0.984857
20
-1.30307
11
0.996063
21
-1.30226
0
LINE
8
BLACK
6
CONTINUOUS
10
0.996063
20
-1.30226
11
1.00727
21
-1.30307
0
LINE
8
BLACK
6
CONTINUOUS
10
1.00727
20
-1.30307
11
1.01825
21
-1.30545
0
LINE
8
BLACK
6
CONTINUOUS
10
1.01825
20
-1.30545
11
1.02877
21
-1.30938
0
LINE
8
BLACK
6
CONTINUOUS
10
1.02877
20
-1.30938
11
1.03863
21
-1.31476
0
LINE
8
BLACK
6
CONTINUOUS
10
1.03863
20
-1.31476
11
1.04421
21
-1.31894
0
LINE
8
BLACK
6
CONTINUOUS
10
1.04421
20
-1.31894
11
1.05847
21
-1.30468
0
LINE
8
BLACK
6
CONTINUOUS
10
1.05847
20
-1.30468
11
1.05847
21
-1.30468
0
LINE
8
BLACK
6
CONTINUOUS
10
1.05847
20
-1.30468
11
1.04891
21
-1.29774
0
LINE
8
BLACK
6
CONTINUOUS
10
1.04891
20
-1.29774
11
1.04559
21
-1.29591
0
LINE
8
BLACK
6
CONTINUOUS
10
1.04559
20
-1.29591
11
1.04374
21
-1.29412
0
LINE
8
BLACK
6
CONTINUOUS
10
1.04374
20
-1.29412
11
1.04306
21
-1.29163
0
LINE
8
BLACK
6
CONTINUOUS
10
1.04306
20
-1.29163
11
1.04374
21
-1.28915
0
LINE
8
BLACK
6
CONTINUOUS
10
1.04374
20
-1.28915
11
1.04559
21
-1.28736
0
LINE
8
BLACK
6
CONTINUOUS
10
1.04559
20
-1.28736
11
1.04891
21
-1.28553
0
LINE
8
BLACK
6
CONTINUOUS
10
1.04891
20
-1.28553
11
1.05847
21
-1.27859
0
LINE
8
BLACK
6
CONTINUOUS
10
1.05847
20
-1.27859
11
1.05847
21
-1.27859
0
LINE
8
BLACK
6
CONTINUOUS
10
1.05847
20
-1.27859
11
1.04421
21
-1.26433
0
LINE
8
BLACK
6
CONTINUOUS
10
1.04421
20
-1.26433
11
1.03863
21
-1.2685
0
LINE
8
BLACK
6
CONTINUOUS
10
1.03863
20
-1.2685
11
1.02877
21
-1.27389
0
LINE
8
BLACK
6
CONTINUOUS
10
1.02877
20
-1.27389
11
1.01825
21
-1.27781
0
LINE
8
BLACK
6
CONTINUOUS
10
1.01825
20
-1.27781
11
1.00727
21
-1.2802
0
LINE
8
BLACK
6
CONTINUOUS
10
1.00727
20
-1.2802
11
0.996063
21
-1.281
0
LINE
8
BLACK
6
CONTINUOUS
10
0.996063
20
-1.281
11
0.984857
21
-1.2802
0
LINE
8
BLACK
6
CONTINUOUS
10
0.984857
20
-1.2802
11
0.973879
21
-1.27781
0
LINE
8
BLACK
6
CONTINUOUS
10
0.973879
20
-1.27781
11
0.963353
21
-1.27389
0
LINE
8
BLACK
6
CONTINUOUS
10
0.963353
20
-1.27389
11
0.953493
21
-1.2685
0
LINE
8
BLACK
6
CONTINUOUS
10
0.953493
20
-1.2685
11
0.947916
21
-1.26433
0
LINE
8
BLACK
6
CONTINUOUS
10
0.947916
20
-1.26433
11
0.93366
21
-1.27859
0
LINE
8
BLACK
6
CONTINUOUS
10
0.93366
20
-1.27859
11
0.93366
21
-1.27859
0
LINE
8
BLACK
6
CONTINUOUS
10
0.93366
20
-1.27859
11
0.94322
21
-1.28553
0
LINE
8
BLACK
6
CONTINUOUS
10
0.94322
20
-1.28553
11
0.946539
21
-1.28736
0
LINE
8
BLACK
6
CONTINUOUS
10
0.946539
20
-1.28736
11
0.948389
21
-1.28915
0
LINE
8
BLACK
6
CONTINUOUS
10
0.948389
20
-1.28915
11
0.949069
21
-1.29163
0
LINE
8
BLACK
6
CONTINUOUS
10
0.949069
20
-1.29163
11
0.948389
21
-1.29412
0
LINE
8
BLACK
6
CONTINUOUS
10
0.948389
20
-1.29412
11
0.946539
21
-1.29591
0
LINE
8
BLACK
6
CONTINUOUS
10
0.946539
20
-1.29591
11
0.94322
21
-1.29774
0
LINE
8
BLACK
6
CONTINUOUS
10
0.94322
20
-1.29774
11
0.93366
21
-1.30468
0
LINE
8
BLACK
6
CONTINUOUS
10
0.93366
20
-1.30468
11
0.93366
21
-1.30468
0
LINE
8
BLACK
6
CONTINUOUS
10
1.09468
20
-1.20226
11
1.09391
21
-1.1899
0
LINE
8
BLACK
6
CONTINUOUS
10
1.09391
20
-1.1899
11
1.09158
21
-1.17774
0
LINE
8
BLACK
6
CONTINUOUS
10
1.09158
20
-1.17774
11
1.08776
21
-1.16596
0
LINE
8
BLACK
6
CONTINUOUS
10
1.08776
20
-1.16596
11
1.08248
21
-1.15475
0
LINE
8
BLACK
6
CONTINUOUS
10
1.08248
20
-1.15475
11
1.07585
21
-1.1443
0
LINE
8
BLACK
6
CONTINUOUS
10
1.07585
20
-1.1443
11
1.07227
21
-1.13997
0
LINE
8
BLACK
6
CONTINUOUS
10
1.07227
20
-1.13997
11
1.05813
21
-1.15412
0
LINE
8
BLACK
6
CONTINUOUS
10
1.05813
20
-1.15412
11
1.0623
21
-1.15969
0
LINE
8
BLACK
6
CONTINUOUS
10
1.0623
20
-1.15969
11
1.06769
21
-1.16955
0
LINE
8
BLACK
6
CONTINUOUS
10
1.06769
20
-1.16955
11
1.07161
21
-1.18008
0
LINE
8
BLACK
6
CONTINUOUS
10
1.07161
20
-1.18008
11
1.074
21
-1.19106
0
LINE
8
BLACK
6
CONTINUOUS
10
1.074
20
-1.19106
11
1.0748
21
-1.20226
0
LINE
8
BLACK
6
CONTINUOUS
10
1.0748
20
-1.20226
11
1.074
21
-1.21347
0
LINE
8
BLACK
6
CONTINUOUS
10
1.074
20
-1.21347
11
1.07161
21
-1.22445
0
LINE
8
BLACK
6
CONTINUOUS
10
1.07161
20
-1.22445
11
1.06769
21
-1.23497
0
LINE
8
BLACK
6
CONTINUOUS
10
1.06769
20
-1.23497
11
1.0623
21
-1.24483
0
LINE
8
BLACK
6
CONTINUOUS
10
1.0623
20
-1.24483
11
1.05813
21
-1.25041
0
LINE
8
BLACK
6
CONTINUOUS
10
1.05813
20
-1.25041
11
1.07227
21
-1.26455
0
LINE
8
BLACK
6
CONTINUOUS
10
1.07227
20
-1.26455
11
1.07227
21
-1.26455
0
LINE
8
BLACK
6
CONTINUOUS
10
1.07227
20
-1.26455
11
1.07585
21
-1.26023
0
LINE
8
BLACK
6
CONTINUOUS
10
1.07585
20
-1.26023
11
1.08248
21
-1.24977
0
LINE
8
BLACK
6
CONTINUOUS
10
1.08248
20
-1.24977
11
1.08776
21
-1.23857
0
LINE
8
BLACK
6
CONTINUOUS
10
1.08776
20
-1.23857
11
1.09158
21
-1.22679
0
LINE
8
BLACK
6
CONTINUOUS
10
1.09158
20
-1.22679
11
1.09391
21
-1.21462
0
LINE
8
BLACK
6
CONTINUOUS
10
1.09391
20
-1.21462
11
1.09468
21
-1.20226
0
LINE
8
BLACK
6
CONTINUOUS
10
0.897443
20
-1.20226
11
0.898221
21
-1.21462
0
LINE
8
BLACK
6
CONTINUOUS
10
0.898221
20
-1.21462
11
0.900541
21
-1.22679
0
LINE
8
BLACK
6
CONTINUOUS
10
0.900541
20
-1.22679
11
0.904369
21
-1.23857
0
LINE
8
BLACK
6
CONTINUOUS
10
0.904369
20
-1.23857
11
0.909642
21
-1.24977
0
LINE
8
BLACK
6
CONTINUOUS
10
0.909642
20
-1.24977
11
0.916278
21
-1.26023
0
LINE
8
BLACK
6
CONTINUOUS
10
0.916278
20
-1.26023
11
0.919854
21
-1.26455
0
LINE
8
BLACK
6
CONTINUOUS
10
0.919854
20
-1.26455
11
0.933997
21
-1.25041
0
LINE
8
BLACK
6
CONTINUOUS
10
0.933997
20
-1.25041
11
0.929823
21
-1.24483
0
LINE
8
BLACK
6
CONTINUOUS
10
0.929823
20
-1.24483
11
0.924438
21
-1.23497
0
LINE
8
BLACK
6
CONTINUOUS
10
0.924438
20
-1.23497
11
0.920512
21
-1.22445
0
LINE
8
BLACK
6
CONTINUOUS
10
0.920512
20
-1.22445
11
0.918124
21
-1.21347
0
LINE
8
BLACK
6
CONTINUOUS
10
0.918124
20
-1.21347
11
0.917323
21
-1.20226
0
LINE
8
BLACK
6
CONTINUOUS
10
0.917323
20
-1.20226
11
0.918124
21
-1.19106
0
LINE
8
BLACK
6
CONTINUOUS
10
0.918124
20
-1.19106
11
0.920512
21
-1.18008
0
LINE
8
BLACK
6
CONTINUOUS
10
0.920512
20
-1.18008
11
0.924438
21
-1.16955
0
LINE
8
BLACK
6
CONTINUOUS
10
0.924438
20
-1.16955
11
0.929823
21
-1.15969
0
LINE
8
BLACK
6
CONTINUOUS
10
0.929823
20
-1.15969
11
0.933997
21
-1.15412
0
LINE
8
BLACK
6
CONTINUOUS
10
0.933997
20
-1.15412
11
0.919854
21
-1.13997
0
LINE
8
BLACK
6
CONTINUOUS
10
0.919854
20
-1.13997
11
0.919854
21
-1.13997
0
LINE
8
BLACK
6
CONTINUOUS
10
0.919854
20
-1.13997
11
0.916278
21
-1.1443
0
LINE
8
BLACK
6
CONTINUOUS
10
0.916278
20
-1.1443
11
0.909642
21
-1.15475
0
LINE
8
BLACK
6
CONTINUOUS
10
0.909642
20
-1.15475
11
0.904369
21
-1.16596
0
LINE
8
BLACK
6
CONTINUOUS
10
0.904369
20
-1.16596
11
0.900541
21
-1.17774
0
LINE
8
BLACK
6
CONTINUOUS
10
0.900541
20
-1.17774
11
0.898221
21
-1.1899
0
LINE
8
BLACK
6
CONTINUOUS
10
0.898221
20
-1.1899
11
0.897443
21
-1.20226
0
LINE
8
BLACK
6
CONTINUOUS
10
0.93366
20
-1.12594
11
0.947916
21
-1.1402
0
LINE
8
BLACK
6
CONTINUOUS
10
0.947916
20
-1.1402
11
0.953493
21
-1.13602
0
LINE
8
BLACK
6
CONTINUOUS
10
0.953493
20
-1.13602
11
0.963353
21
-1.13064
0
LINE
8
BLACK
6
CONTINUOUS
10
0.963353
20
-1.13064
11
0.973879
21
-1.12671
0
LINE
8
BLACK
6
CONTINUOUS
10
0.973879
20
-1.12671
11
0.984857
21
-1.12433
0
LINE
8
BLACK
6
CONTINUOUS
10
0.984857
20
-1.12433
11
0.996063
21
-1.12352
0
LINE
8
BLACK
6
CONTINUOUS
10
0.996063
20
-1.12352
11
1.00727
21
-1.12433
0
LINE
8
BLACK
6
CONTINUOUS
10
1.00727
20
-1.12433
11
1.01825
21
-1.12671
0
LINE
8
BLACK
6
CONTINUOUS
10
1.01825
20
-1.12671
11
1.02877
21
-1.13064
0
LINE
8
BLACK
6
CONTINUOUS
10
1.02877
20
-1.13064
11
1.03863
21
-1.13602
0
LINE
8
BLACK
6
CONTINUOUS
10
1.03863
20
-1.13602
11
1.04421
21
-1.1402
0
LINE
8
BLACK
6
CONTINUOUS
10
1.04421
20
-1.1402
11
1.05847
21
-1.12594
0
LINE
8
BLACK
6
CONTINUOUS
10
1.05847
20
-1.12594
11
1.05847
21
-1.12594
0
LINE
8
BLACK
6
CONTINUOUS
10
1.05847
20
-1.12594
11
1.04891
21
-1.119
0
LINE
8
BLACK
6
CONTINUOUS
10
1.04891
20
-1.119
11
1.03805
21
-1.11303
0
LINE
8
BLACK
6
CONTINUOUS
10
1.03805
20
-1.11303
11
1.02654
21
-1.10847
0
LINE
8
BLACK
6
CONTINUOUS
10
1.02654
20
-1.10847
11
1.01454
21
-1.10539
0
LINE
8
BLACK
6
CONTINUOUS
10
1.01454
20
-1.10539
11
1.00226
21
-1.10384
0
LINE
8
BLACK
6
CONTINUOUS
10
1.00226
20
-1.10384
11
0.989871
21
-1.10384
0
LINE
8
BLACK
6
CONTINUOUS
10
0.989871
20
-1.10384
11
0.977583
21
-1.10539
0
LINE
8
BLACK
6
CONTINUOUS
10
0.977583
20
-1.10539
11
0.965588
21
-1.10847
0
LINE
8
BLACK
6
CONTINUOUS
10
0.965588
20
-1.10847
11
0.954073
21
-1.11303
0
LINE
8
BLACK
6
CONTINUOUS
10
0.954073
20
-1.11303
11
0.94322
21
-1.119
0
LINE
8
BLACK
6
CONTINUOUS
10
0.94322
20
-1.119
11
0.93366
21
-1.12594
0
LINE
8
BLACK
6
CONTINUOUS
10
0.93366
20
-1.12594
11
0.93366
21
-1.12594
0
LINE
8
BLACK
6
CONTINUOUS
10
1.53029
20
-1.12549
11
1.52135
21
-1.119
0
LINE
8
BLACK
6
CONTINUOUS
10
1.52135
20
-1.119
11
1.51049
21
-1.11303
0
LINE
8
BLACK
6
CONTINUOUS
10
1.51049
20
-1.11303
11
1.49898
21
-1.10847
0
LINE
8
BLACK
6
CONTINUOUS
10
1.49898
20
-1.10847
11
1.48698
21
-1.10539
0
LINE
8
BLACK
6
CONTINUOUS
10
1.48698
20
-1.10539
11
1.4747
21
-1.10384
0
LINE
8
BLACK
6
CONTINUOUS
10
1.4747
20
-1.10384
11
1.46231
21
-1.10384
0
LINE
8
BLACK
6
CONTINUOUS
10
1.46231
20
-1.10384
11
1.45002
21
-1.10539
0
LINE
8
BLACK
6
CONTINUOUS
10
1.45002
20
-1.10539
11
1.43803
21
-1.10847
0
LINE
8
BLACK
6
CONTINUOUS
10
1.43803
20
-1.10847
11
1.42651
21
-1.11303
0
LINE
8
BLACK
6
CONTINUOUS
10
1.42651
20
-1.11303
11
1.41566
21
-1.119
0
LINE
8
BLACK
6
CONTINUOUS
10
1.41566
20
-1.119
11
1.4061
21
-1.12594
0
LINE
8
BLACK
6
CONTINUOUS
10
1.4061
20
-1.12594
11
1.4061
21
-1.12594
0
LINE
8
BLACK
6
CONTINUOUS
10
1.4061
20
-1.12594
11
1.42036
21
-1.1402
0
LINE
8
BLACK
6
CONTINUOUS
10
1.42036
20
-1.1402
11
1.42593
21
-1.13602
0
LINE
8
BLACK
6
CONTINUOUS
10
1.42593
20
-1.13602
11
1.43579
21
-1.13064
0
LINE
8
BLACK
6
CONTINUOUS
10
1.43579
20
-1.13064
11
1.44632
21
-1.12671
0
LINE
8
BLACK
6
CONTINUOUS
10
1.44632
20
-1.12671
11
1.4573
21
-1.12433
0
LINE
8
BLACK
6
CONTINUOUS
10
1.4573
20
-1.12433
11
1.4685
21
-1.12352
0
LINE
8
BLACK
6
CONTINUOUS
10
1.4685
20
-1.12352
11
1.47971
21
-1.12433
0
LINE
8
BLACK
6
CONTINUOUS
10
1.47971
20
-1.12433
11
1.49069
21
-1.12671
0
LINE
8
BLACK
6
CONTINUOUS
10
1.49069
20
-1.12671
11
1.50121
21
-1.13064
0
LINE
8
BLACK
6
CONTINUOUS
10
1.50121
20
-1.13064
11
1.51107
21
-1.13602
0
LINE
8
BLACK
6
CONTINUOUS
10
1.51107
20
-1.13602
11
1.51665
21
-1.1402
0
LINE
8
BLACK
6
CONTINUOUS
10
1.51665
20
-1.1402
11
1.53091
21
-1.12594
0
LINE
8
BLACK
6
CONTINUOUS
10
1.53091
20
-1.12594
11
1.53091
21
-1.12594
0
LINE
8
BLACK
6
CONTINUOUS
10
1.53091
20
-1.12594
11
1.53029
21
-1.12549
0
LINE
8
BLACK
6
CONTINUOUS
10
2.2185
20
-1.43258
11
2.19291
21
-1.43258
0
LINE
8
BLACK
6
CONTINUOUS
10
2.19291
20
-1.43258
11
2.19291
21
-1.46211
0
LINE
8
BLACK
6
CONTINUOUS
10
2.19291
20
-1.46211
11
2.19262
21
-1.46339
0
LINE
8
BLACK
6
CONTINUOUS
10
2.19262
20
-1.46339
11
2.19247
21
-1.46471
0
LINE
8
BLACK
6
CONTINUOUS
10
2.19247
20
-1.46471
11
2.19223
21
-1.46509
0
LINE
8
BLACK
6
CONTINUOUS
10
2.19223
20
-1.46509
11
2.19213
21
-1.46552
0
LINE
8
BLACK
6
CONTINUOUS
10
2.19213
20
-1.46552
11
2.19131
21
-1.46656
0
LINE
8
BLACK
6
CONTINUOUS
10
2.19131
20
-1.46656
11
2.19061
21
-1.46767
0
LINE
8
BLACK
6
CONTINUOUS
10
2.19061
20
-1.46767
11
2.07447
21
-1.58382
0
LINE
8
BLACK
6
CONTINUOUS
10
2.07447
20
-1.58382
11
2.07335
21
-1.58452
0
LINE
8
BLACK
6
CONTINUOUS
10
2.07335
20
-1.58452
11
2.07231
21
-1.58534
0
LINE
8
BLACK
6
CONTINUOUS
10
2.07231
20
-1.58534
11
2.07188
21
-1.58544
0
LINE
8
BLACK
6
CONTINUOUS
10
2.07188
20
-1.58544
11
2.0715
21
-1.58568
0
LINE
8
BLACK
6
CONTINUOUS
10
2.0715
20
-1.58568
11
2.07019
21
-1.58583
0
LINE
8
BLACK
6
CONTINUOUS
10
2.07019
20
-1.58583
11
2.0689
21
-1.58612
0
LINE
8
BLACK
6
CONTINUOUS
10
2.0689
20
-1.58612
11
1.37334
21
-1.58612
0
LINE
8
BLACK
6
CONTINUOUS
10
1.37334
20
-1.58612
11
1.33431
21
-1.62515
0
LINE
8
BLACK
6
CONTINUOUS
10
1.33431
20
-1.62515
11
1.33319
21
-1.62586
0
LINE
8
BLACK
6
CONTINUOUS
10
1.33319
20
-1.62586
11
1.33216
21
-1.62668
0
LINE
8
BLACK
6
CONTINUOUS
10
1.33216
20
-1.62668
11
1.33172
21
-1.62678
0
LINE
8
BLACK
6
CONTINUOUS
10
1.33172
20
-1.62678
11
1.33134
21
-1.62702
0
LINE
8
BLACK
6
CONTINUOUS
10
1.33134
20
-1.62702
11
1.33003
21
-1.62717
0
LINE
8
BLACK
6
CONTINUOUS
10
1.33003
20
-1.62717
11
1.32874
21
-1.62746
0
LINE
8
BLACK
6
CONTINUOUS
10
1.32874
20
-1.62746
11
1.23031
21
-1.62746
0
LINE
8
BLACK
6
CONTINUOUS
10
1.23031
20
-1.62746
11
1.22903
21
-1.62717
0
LINE
8
BLACK
6
CONTINUOUS
10
1.22903
20
-1.62717
11
1.22771
21
-1.62702
0
LINE
8
BLACK
6
CONTINUOUS
10
1.22771
20
-1.62702
11
1.22734
21
-1.62678
0
LINE
8
BLACK
6
CONTINUOUS
10
1.22734
20
-1.62678
11
1.2269
21
-1.62668
0
LINE
8
BLACK
6
CONTINUOUS
10
1.2269
20
-1.62668
11
1.22587
21
-1.62586
0
LINE
8
BLACK
6
CONTINUOUS
10
1.22587
20
-1.62586
11
1.22475
21
-1.62515
0
LINE
8
BLACK
6
CONTINUOUS
10
1.22475
20
-1.62515
11
1.20343
21
-1.60384
0
LINE
8
BLACK
6
CONTINUOUS
10
1.20343
20
-1.60384
11
1.15157
21
-1.60384
0
LINE
8
BLACK
6
CONTINUOUS
10
1.15157
20
-1.60384
11
1.15157
21
-1.54085
0
LINE
8
BLACK
6
CONTINUOUS
10
1.15157
20
-1.54085
11
1.21457
21
-1.54085
0
LINE
8
BLACK
6
CONTINUOUS
10
1.21457
20
-1.54085
11
1.21457
21
-1.5927
0
LINE
8
BLACK
6
CONTINUOUS
10
1.21457
20
-1.5927
11
1.23358
21
-1.61171
0
LINE
8
BLACK
6
CONTINUOUS
10
1.23358
20
-1.61171
11
1.32548
21
-1.61171
0
LINE
8
BLACK
6
CONTINUOUS
10
1.32548
20
-1.61171
11
1.36451
21
-1.57268
0
LINE
8
BLACK
6
CONTINUOUS
10
1.36451
20
-1.57268
11
1.36563
21
-1.57198
0
LINE
8
BLACK
6
CONTINUOUS
10
1.36563
20
-1.57198
11
1.36666
21
-1.57115
0
LINE
8
BLACK
6
CONTINUOUS
10
1.36666
20
-1.57115
11
1.3671
21
-1.57105
0
LINE
8
BLACK
6
CONTINUOUS
10
1.3671
20
-1.57105
11
1.36748
21
-1.57082
0
LINE
8
BLACK
6
CONTINUOUS
10
1.36748
20
-1.57082
11
1.36879
21
-1.57067
0
LINE
8
BLACK
6
CONTINUOUS
10
1.36879
20
-1.57067
11
1.37008
21
-1.57037
0
LINE
8
BLACK
6
CONTINUOUS
10
1.37008
20
-1.57037
11
2.06564
21
-1.57037
0
LINE
8
BLACK
6
CONTINUOUS
10
2.06564
20
-1.57037
11
2.17717
21
-1.45884
0
LINE
8
BLACK
6
CONTINUOUS
10
2.17717
20
-1.45884
11
2.17717
21
-1.43258
0
LINE
8
BLACK
6
CONTINUOUS
10
2.17717
20
-1.43258
11
2.15157
21
-1.43258
0
LINE
8
BLACK
6
CONTINUOUS
10
2.15157
20
-1.43258
11
2.15157
21
-1.36565
0
LINE
8
BLACK
6
CONTINUOUS
10
2.15157
20
-1.36565
11
2.2185
21
-1.36565
0
LINE
8
BLACK
6
CONTINUOUS
10
2.2185
20
-1.36565
11
2.2185
21
-1.43258
0
LINE
8
BLACK
6
CONTINUOUS
10
2.09538
20
-1.36729
11
2.10177
21
-1.37013
0
LINE
8
BLACK
6
CONTINUOUS
10
2.10177
20
-1.37013
11
2.10743
21
-1.37425
0
LINE
8
BLACK
6
CONTINUOUS
10
2.10743
20
-1.37425
11
2.11211
21
-1.37944
0
LINE
8
BLACK
6
CONTINUOUS
10
2.11211
20
-1.37944
11
2.11561
21
-1.3855
0
LINE
8
BLACK
6
CONTINUOUS
10
2.11561
20
-1.3855
11
2.11777
21
-1.39216
0
LINE
8
BLACK
6
CONTINUOUS
10
2.11777
20
-1.39216
11
2.1185
21
-1.39911
0
LINE
8
BLACK
6
CONTINUOUS
10
2.1185
20
-1.39911
11
2.11777
21
-1.40607
0
LINE
8
BLACK
6
CONTINUOUS
10
2.11777
20
-1.40607
11
2.11561
21
-1.41273
0
LINE
8
BLACK
6
CONTINUOUS
10
2.11561
20
-1.41273
11
2.11211
21
-1.41878
0
LINE
8
BLACK
6
CONTINUOUS
10
2.11211
20
-1.41878
11
2.10743
21
-1.42398
0
LINE
8
BLACK
6
CONTINUOUS
10
2.10743
20
-1.42398
11
2.10177
21
-1.4281
0
LINE
8
BLACK
6
CONTINUOUS
10
2.10177
20
-1.4281
11
2.09538
21
-1.43094
0
LINE
8
BLACK
6
CONTINUOUS
10
2.09538
20
-1.43094
11
2.08854
21
-1.4324
0
LINE
8
BLACK
6
CONTINUOUS
10
2.08854
20
-1.4324
11
2.08154
21
-1.4324
0
LINE
8
BLACK
6
CONTINUOUS
10
2.08154
20
-1.4324
11
2.0747
21
-1.43094
0
LINE
8
BLACK
6
CONTINUOUS
10
2.0747
20
-1.43094
11
2.06831
21
-1.4281
0
LINE
8
BLACK
6
CONTINUOUS
10
2.06831
20
-1.4281
11
2.06444
21
-1.42528
0
LINE
8
BLACK
6
CONTINUOUS
10
2.06444
20
-1.42528
11
1.94511
21
-1.54461
0
LINE
8
BLACK
6
CONTINUOUS
10
1.94511
20
-1.54461
11
1.94482
21
-1.54476
0
LINE
8
BLACK
6
CONTINUOUS
10
1.94482
20
-1.54476
11
1.94464
21
-1.54502
0
LINE
8
BLACK
6
CONTINUOUS
10
1.94464
20
-1.54502
11
1.94376
21
-1.5453
0
LINE
8
BLACK
6
CONTINUOUS
10
1.94376
20
-1.5453
11
1.94294
21
-1.54572
0
LINE
8
BLACK
6
CONTINUOUS
10
1.94294
20
-1.54572
11
1.94262
21
-1.54567
0
LINE
8
BLACK
6
CONTINUOUS
10
1.94262
20
-1.54567
11
1.94232
21
-1.54577
0
LINE
8
BLACK
6
CONTINUOUS
10
1.94232
20
-1.54577
11
1.31364
21
-1.54577
0
LINE
8
BLACK
6
CONTINUOUS
10
1.31364
20
-1.54577
11
1.30634
21
-1.55306
0
LINE
8
BLACK
6
CONTINUOUS
10
1.30634
20
-1.55306
11
1.30987
21
-1.55868
0
LINE
8
BLACK
6
CONTINUOUS
10
1.30987
20
-1.55868
11
1.3122
21
-1.56533
0
LINE
8
BLACK
6
CONTINUOUS
10
1.3122
20
-1.56533
11
1.31299
21
-1.57234
0
LINE
8
BLACK
6
CONTINUOUS
10
1.31299
20
-1.57234
11
1.3122
21
-1.57935
0
LINE
8
BLACK
6
CONTINUOUS
10
1.3122
20
-1.57935
11
1.30987
21
-1.58601
0
LINE
8
BLACK
6
CONTINUOUS
10
1.30987
20
-1.58601
11
1.30612
21
-1.59198
0
LINE
8
BLACK
6
CONTINUOUS
10
1.30612
20
-1.59198
11
1.30113
21
-1.59697
0
LINE
8
BLACK
6
CONTINUOUS
10
1.30113
20
-1.59697
11
1.29516
21
-1.60072
0
LINE
8
BLACK
6
CONTINUOUS
10
1.29516
20
-1.60072
11
1.2885
21
-1.60305
0
LINE
8
BLACK
6
CONTINUOUS
10
1.2885
20
-1.60305
11
1.2815
21
-1.60384
0
LINE
8
BLACK
6
CONTINUOUS
10
1.2815
20
-1.60384
11
1.27449
21
-1.60305
0
LINE
8
BLACK
6
CONTINUOUS
10
1.27449
20
-1.60305
11
1.26783
21
-1.60072
0
LINE
8
BLACK
6
CONTINUOUS
10
1.26783
20
-1.60072
11
1.26186
21
-1.59697
0
LINE
8
BLACK
6
CONTINUOUS
10
1.26186
20
-1.59697
11
1.25687
21
-1.59198
0
LINE
8
BLACK
6
CONTINUOUS
10
1.25687
20
-1.59198
11
1.25312
21
-1.58601
0
LINE
8
BLACK
6
CONTINUOUS
10
1.25312
20
-1.58601
11
1.25079
21
-1.57935
0
LINE
8
BLACK
6
CONTINUOUS
10
1.25079
20
-1.57935
11
1.25
21
-1.57234
0
LINE
8
BLACK
6
CONTINUOUS
10
1.25
20
-1.57234
11
1.25079
21
-1.56533
0
LINE
8
BLACK
6
CONTINUOUS
10
1.25079
20
-1.56533
11
1.25312
21
-1.55868
0
LINE
8
BLACK
6
CONTINUOUS
10
1.25312
20
-1.55868
11
1.25687
21
-1.55271
0
LINE
8
BLACK
6
CONTINUOUS
10
1.25687
20
-1.55271
11
1.26186
21
-1.54772
0
LINE
8
BLACK
6
CONTINUOUS
10
1.26186
20
-1.54772
11
1.26783
21
-1.54397
0
LINE
8
BLACK
6
CONTINUOUS
10
1.26783
20
-1.54397
11
1.27449
21
-1.54164
0
LINE
8
BLACK
6
CONTINUOUS
10
1.27449
20
-1.54164
11
1.2815
21
-1.54085
0
LINE
8
BLACK
6
CONTINUOUS
10
1.2815
20
-1.54085
11
1.2885
21
-1.54164
0
LINE
8
BLACK
6
CONTINUOUS
10
1.2885
20
-1.54164
11
1.29516
21
-1.54397
0
LINE
8
BLACK
6
CONTINUOUS
10
1.29516
20
-1.54397
11
1.30078
21
-1.54749
0
LINE
8
BLACK
6
CONTINUOUS
10
1.30078
20
-1.54749
11
1.30922
21
-1.53905
0
LINE
8
BLACK
6
CONTINUOUS
10
1.30922
20
-1.53905
11
1.30951
21
-1.5389
0
LINE
8
BLACK
6
CONTINUOUS
10
1.30951
20
-1.5389
11
1.30969
21
-1.53865
0
LINE
8
BLACK
6
CONTINUOUS
10
1.30969
20
-1.53865
11
1.31057
21
-1.53836
0
LINE
8
BLACK
6
CONTINUOUS
10
1.31057
20
-1.53836
11
1.31139
21
-1.53794
0
LINE
8
BLACK
6
CONTINUOUS
10
1.31139
20
-1.53794
11
1.31171
21
-1.53799
0
LINE
8
BLACK
6
CONTINUOUS
10
1.31171
20
-1.53799
11
1.31201
21
-1.53789
0
LINE
8
BLACK
6
CONTINUOUS
10
1.31201
20
-1.53789
11
1.94069
21
-1.53789
0
LINE
8
BLACK
6
CONTINUOUS
10
1.94069
20
-1.53789
11
2.05884
21
-1.41975
0
LINE
8
BLACK
6
CONTINUOUS
10
2.05884
20
-1.41975
11
2.05797
21
-1.41878
0
LINE
8
BLACK
6
CONTINUOUS
10
2.05797
20
-1.41878
11
2.05447
21
-1.41273
0
LINE
8
BLACK
6
CONTINUOUS
10
2.05447
20
-1.41273
11
2.05231
21
-1.40607
0
LINE
8
BLACK
6
CONTINUOUS
10
2.05231
20
-1.40607
11
2.05157
21
-1.39911
0
LINE
8
BLACK
6
CONTINUOUS
10
2.05157
20
-1.39911
11
2.05231
21
-1.39216
0
LINE
8
BLACK
6
CONTINUOUS
10
2.05231
20
-1.39216
11
2.05447
21
-1.3855
0
LINE
8
BLACK
6
CONTINUOUS
10
2.05447
20
-1.3855
11
2.05797
21
-1.37944
0
LINE
8
BLACK
6
CONTINUOUS
10
2.05797
20
-1.37944
11
2.06265
21
-1.37425
0
LINE
8
BLACK
6
CONTINUOUS
10
2.06265
20
-1.37425
11
2.06831
21
-1.37013
0
LINE
8
BLACK
6
CONTINUOUS
10
2.06831
20
-1.37013
11
2.0747
21
-1.36729
0
LINE
8
BLACK
6
CONTINUOUS
10
2.0747
20
-1.36729
11
2.08154
21
-1.36583
0
LINE
8
BLACK
6
CONTINUOUS
10
2.08154
20
-1.36583
11
2.08854
21
-1.36583
0
LINE
8
BLACK
6
CONTINUOUS
10
2.08854
20
-1.36583
11
2.09538
21
-1.36729
0
LINE
8
BLACK
6
CONTINUOUS
10
1.99538
20
-1.36729
11
2.00177
21
-1.37013
0
LINE
8
BLACK
6
CONTINUOUS
10
2.00177
20
-1.37013
11
2.00743
21
-1.37425
0
LINE
8
BLACK
6
CONTINUOUS
10
2.00743
20
-1.37425
11
2.01211
21
-1.37944
0
LINE
8
BLACK
6
CONTINUOUS
10
2.01211
20
-1.37944
11
2.01561
21
-1.3855
0
LINE
8
BLACK
6
CONTINUOUS
10
2.01561
20
-1.3855
11
2.01777
21
-1.39216
0
LINE
8
BLACK
6
CONTINUOUS
10
2.01777
20
-1.39216
11
2.0185
21
-1.39911
0
LINE
8
BLACK
6
CONTINUOUS
10
2.0185
20
-1.39911
11
2.01777
21
-1.40607
0
LINE
8
BLACK
6
CONTINUOUS
10
2.01777
20
-1.40607
11
2.01561
21
-1.41273
0
LINE
8
BLACK
6
CONTINUOUS
10
2.01561
20
-1.41273
11
2.01211
21
-1.41878
0
LINE
8
BLACK
6
CONTINUOUS
10
2.01211
20
-1.41878
11
2.00743
21
-1.42398
0
LINE
8
BLACK
6
CONTINUOUS
10
2.00743
20
-1.42398
11
2.00177
21
-1.4281
0
LINE
8
BLACK
6
CONTINUOUS
10
2.00177
20
-1.4281
11
1.99538
21
-1.43094
0
LINE
8
BLACK
6
CONTINUOUS
10
1.99538
20
-1.43094
11
1.98898
21
-1.4323
0
LINE
8
BLACK
6
CONTINUOUS
10
1.98898
20
-1.4323
11
1.98898
21
-1.47406
0
LINE
8
BLACK
6
CONTINUOUS
10
1.98898
20
-1.47406
11
1.98888
21
-1.47436
0
LINE
8
BLACK
6
CONTINUOUS
10
1.98888
20
-1.47436
11
1.98893
21
-1.47468
0
LINE
8
BLACK
6
CONTINUOUS
10
1.98893
20
-1.47468
11
1.98851
21
-1.4755
0
LINE
8
BLACK
6
CONTINUOUS
10
1.98851
20
-1.4755
11
1.98822
21
-1.47637
0
LINE
8
BLACK
6
CONTINUOUS
10
1.98822
20
-1.47637
11
1.98797
21
-1.47656
0
LINE
8
BLACK
6
CONTINUOUS
10
1.98797
20
-1.47656
11
1.98782
21
-1.47684
0
LINE
8
BLACK
6
CONTINUOUS
10
1.98782
20
-1.47684
11
1.93777
21
-1.5269
0
LINE
8
BLACK
6
CONTINUOUS
10
1.93777
20
-1.5269
11
1.93749
21
-1.52704
0
LINE
8
BLACK
6
CONTINUOUS
10
1.93749
20
-1.52704
11
1.9373
21
-1.5273
0
LINE
8
BLACK
6
CONTINUOUS
10
1.9373
20
-1.5273
11
1.93642
21
-1.52758
0
LINE
8
BLACK
6
CONTINUOUS
10
1.93642
20
-1.52758
11
1.9356
21
-1.528
0
LINE
8
BLACK
6
CONTINUOUS
10
1.9356
20
-1.528
11
1.93529
21
-1.52795
0
LINE
8
BLACK
6
CONTINUOUS
10
1.93529
20
-1.52795
11
1.93498
21
-1.52805
0
LINE
8
BLACK
6
CONTINUOUS
10
1.93498
20
-1.52805
11
1.31201
21
-1.52805
0
LINE
8
BLACK
6
CONTINUOUS
10
1.31201
20
-1.52805
11
1.31171
21
-1.52795
0
LINE
8
BLACK
6
CONTINUOUS
10
1.31171
20
-1.52795
11
1.31139
21
-1.528
0
LINE
8
BLACK
6
CONTINUOUS
10
1.31139
20
-1.528
11
1.31057
21
-1.52758
0
LINE
8
BLACK
6
CONTINUOUS
10
1.31057
20
-1.52758
11
1.30969
21
-1.5273
0
LINE
8
BLACK
6
CONTINUOUS
10
1.30969
20
-1.5273
11
1.30951
21
-1.52704
0
LINE
8
BLACK
6
CONTINUOUS
10
1.30951
20
-1.52704
11
1.30922
21
-1.5269
0
LINE
8
BLACK
6
CONTINUOUS
10
1.30922
20
-1.5269
11
1.30078
21
-1.51845
0
LINE
8
BLACK
6
CONTINUOUS
10
1.30078
20
-1.51845
11
1.29516
21
-1.52198
0
LINE
8
BLACK
6
CONTINUOUS
10
1.29516
20
-1.52198
11
1.2885
21
-1.52431
0
LINE
8
BLACK
6
CONTINUOUS
10
1.2885
20
-1.52431
11
1.2815
21
-1.5251
0
LINE
8
BLACK
6
CONTINUOUS
10
1.2815
20
-1.5251
11
1.27449
21
-1.52431
0
LINE
8
BLACK
6
CONTINUOUS
10
1.27449
20
-1.52431
11
1.26783
21
-1.52198
0
LINE
8
BLACK
6
CONTINUOUS
10
1.26783
20
-1.52198
11
1.26186
21
-1.51823
0
LINE
8
BLACK
6
CONTINUOUS
10
1.26186
20
-1.51823
11
1.25687
21
-1.51324
0
LINE
8
BLACK
6
CONTINUOUS
10
1.25687
20
-1.51324
11
1.25312
21
-1.50727
0
LINE
8
BLACK
6
CONTINUOUS
10
1.25312
20
-1.50727
11
1.25079
21
-1.50061
0
LINE
8
BLACK
6
CONTINUOUS
10
1.25079
20
-1.50061
11
1.25
21
-1.4936
0
LINE
8
BLACK
6
CONTINUOUS
10
1.25
20
-1.4936
11
1.25079
21
-1.48659
0
LINE
8
BLACK
6
CONTINUOUS
10
1.25079
20
-1.48659
11
1.25312
21
-1.47994
0
LINE
8
BLACK
6
CONTINUOUS
10
1.25312
20
-1.47994
11
1.25687
21
-1.47396
0
LINE
8
BLACK
6
CONTINUOUS
10
1.25687
20
-1.47396
11
1.26186
21
-1.46898
0
LINE
8
BLACK
6
CONTINUOUS
10
1.26186
20
-1.46898
11
1.26783
21
-1.46523
0
LINE
8
BLACK
6
CONTINUOUS
10
1.26783
20
-1.46523
11
1.27449
21
-1.4629
0
LINE
8
BLACK
6
CONTINUOUS
10
1.27449
20
-1.4629
11
1.2815
21
-1.46211
0
LINE
8
BLACK
6
CONTINUOUS
10
1.2815
20
-1.46211
11
1.2885
21
-1.4629
0
LINE
8
BLACK
6
CONTINUOUS
10
1.2885
20
-1.4629
11
1.29516
21
-1.46523
0
LINE
8
BLACK
6
CONTINUOUS
10
1.29516
20
-1.46523
11
1.30113
21
-1.46898
0
LINE
8
BLACK
6
CONTINUOUS
10
1.30113
20
-1.46898
11
1.30612
21
-1.47396
0
LINE
8
BLACK
6
CONTINUOUS
10
1.30612
20
-1.47396
11
1.30987
21
-1.47994
0
LINE
8
BLACK
6
CONTINUOUS
10
1.30987
20
-1.47994
11
1.3122
21
-1.48659
0
LINE
8
BLACK
6
CONTINUOUS
10
1.3122
20
-1.48659
11
1.31299
21
-1.4936
0
LINE
8
BLACK
6
CONTINUOUS
10
1.31299
20
-1.4936
11
1.3122
21
-1.50061
0
LINE
8
BLACK
6
CONTINUOUS
10
1.3122
20
-1.50061
11
1.30987
21
-1.50727
0
LINE
8
BLACK
6
CONTINUOUS
10
1.30987
20
-1.50727
11
1.30634
21
-1.51288
0
LINE
8
BLACK
6
CONTINUOUS
10
1.30634
20
-1.51288
11
1.31364
21
-1.52018
0
LINE
8
BLACK
6
CONTINUOUS
10
1.31364
20
-1.52018
11
1.93335
21
-1.52018
0
LINE
8
BLACK
6
CONTINUOUS
10
1.93335
20
-1.52018
11
1.9811
21
-1.47243
0
LINE
8
BLACK
6
CONTINUOUS
10
1.9811
20
-1.47243
11
1.9811
21
-1.4323
0
LINE
8
BLACK
6
CONTINUOUS
10
1.9811
20
-1.4323
11
1.9747
21
-1.43094
0
LINE
8
BLACK
6
CONTINUOUS
10
1.9747
20
-1.43094
11
1.96831
21
-1.4281
0
LINE
8
BLACK
6
CONTINUOUS
10
1.96831
20
-1.4281
11
1.96265
21
-1.42398
0
LINE
8
BLACK
6
CONTINUOUS
10
1.96265
20
-1.42398
11
1.95797
21
-1.41878
0
LINE
8
BLACK
6
CONTINUOUS
10
1.95797
20
-1.41878
11
1.95447
21
-1.41273
0
LINE
8
BLACK
6
CONTINUOUS
10
1.95447
20
-1.41273
11
1.95231
21
-1.40607
0
LINE
8
BLACK
6
CONTINUOUS
10
1.95231
20
-1.40607
11
1.95157
21
-1.39911
0
LINE
8
BLACK
6
CONTINUOUS
10
1.95157
20
-1.39911
11
1.95231
21
-1.39216
0
LINE
8
BLACK
6
CONTINUOUS
10
1.95231
20
-1.39216
11
1.95447
21
-1.3855
0
LINE
8
BLACK
6
CONTINUOUS
10
1.95447
20
-1.3855
11
1.95797
21
-1.37944
0
LINE
8
BLACK
6
CONTINUOUS
10
1.95797
20
-1.37944
11
1.96265
21
-1.37425
0
LINE
8
BLACK
6
CONTINUOUS
10
1.96265
20
-1.37425
11
1.96831
21
-1.37013
0
LINE
8
BLACK
6
CONTINUOUS
10
1.96831
20
-1.37013
11
1.9747
21
-1.36729
0
LINE
8
BLACK
6
CONTINUOUS
10
1.9747
20
-1.36729
11
1.98154
21
-1.36583
0
LINE
8
BLACK
6
CONTINUOUS
10
1.98154
20
-1.36583
11
1.98854
21
-1.36583
0
LINE
8
BLACK
6
CONTINUOUS
10
1.98854
20
-1.36583
11
1.99538
21
-1.36729
0
LINE
8
BLACK
6
CONTINUOUS
10
2.18505
20
-1.12642
11
2.18505
21
-1.16093
0
LINE
8
BLACK
6
CONTINUOUS
10
2.18505
20
-1.16093
11
2.18505
21
-1.24242
0
LINE
8
BLACK
6
CONTINUOUS
10
2.18505
20
-1.24242
11
2.08661
21
-1.24242
0
LINE
8
BLACK
6
CONTINUOUS
10
2.08661
20
-1.24242
11
1.98818
21
-1.24242
0
LINE
8
BLACK
6
CONTINUOUS
10
1.98818
20
-1.24242
11
1.98818
21
-1.16093
0
LINE
8
BLACK
6
CONTINUOUS
10
1.98818
20
-1.16093
11
1.98818
21
-1.07943
0
LINE
8
BLACK
6
CONTINUOUS
10
1.98818
20
-1.07943
11
2.08661
21
-1.07943
0
LINE
8
BLACK
6
CONTINUOUS
10
2.08661
20
-1.07943
11
2.18505
21
-1.07943
0
LINE
8
BLACK
6
CONTINUOUS
10
2.18505
20
-1.07943
11
2.18505
21
-1.12642
0
LINE
8
BLACK
6
CONTINUOUS
10
2.14562
20
-1.12642
11
2.14561
21
-1.12381
0
LINE
8
BLACK
6
CONTINUOUS
10
2.14561
20
-1.12381
11
2.14561
21
-1.12159
0
LINE
8
BLACK
6
CONTINUOUS
10
2.14561
20
-1.12159
11
2.1456
21
-1.11974
0
LINE
8
BLACK
6
CONTINUOUS
10
2.1456
20
-1.11974
11
2.14558
21
-1.11823
0
LINE
8
BLACK
6
CONTINUOUS
10
2.14558
20
-1.11823
11
2.14556
21
-1.11702
0
LINE
8
BLACK
6
CONTINUOUS
10
2.14556
20
-1.11702
11
2.14553
21
-1.1161
0
LINE
8
BLACK
6
CONTINUOUS
10
2.14553
20
-1.1161
11
2.1455
21
-1.11541
0
LINE
8
BLACK
6
CONTINUOUS
10
2.1455
20
-1.11541
11
2.14546
21
-1.11494
0
LINE
8
BLACK
6
CONTINUOUS
10
2.14546
20
-1.11494
11
2.14541
21
-1.11466
0
LINE
8
BLACK
6
CONTINUOUS
10
2.14541
20
-1.11466
11
2.14535
21
-1.11453
0
LINE
8
BLACK
6
CONTINUOUS
10
2.14535
20
-1.11453
11
2.14529
21
-1.11452
0
LINE
8
BLACK
6
CONTINUOUS
10
2.14529
20
-1.11452
11
2.14521
21
-1.1146
0
LINE
8
BLACK
6
CONTINUOUS
10
2.14521
20
-1.1146
11
2.14513
21
-1.11475
0
LINE
8
BLACK
6
CONTINUOUS
10
2.14513
20
-1.11475
11
2.14502
21
-1.11496
0
LINE
8
BLACK
6
CONTINUOUS
10
2.14502
20
-1.11496
11
2.14468
21
-1.11569
0
LINE
8
BLACK
6
CONTINUOUS
10
2.14468
20
-1.11569
11
2.14412
21
-1.11689
0
LINE
8
BLACK
6
CONTINUOUS
10
2.14412
20
-1.11689
11
2.14336
21
-1.11852
0
LINE
8
BLACK
6
CONTINUOUS
10
2.14336
20
-1.11852
11
2.14242
21
-1.12054
0
LINE
8
BLACK
6
CONTINUOUS
10
2.14242
20
-1.12054
11
2.14133
21
-1.12291
0
LINE
8
BLACK
6
CONTINUOUS
10
2.14133
20
-1.12291
11
2.14008
21
-1.1256
0
LINE
8
BLACK
6
CONTINUOUS
10
2.14008
20
-1.1256
11
2.13871
21
-1.12857
0
LINE
8
BLACK
6
CONTINUOUS
10
2.13871
20
-1.12857
11
2.13723
21
-1.13179
0
LINE
8
BLACK
6
CONTINUOUS
10
2.13723
20
-1.13179
11
2.13565
21
-1.13521
0
LINE
8
BLACK
6
CONTINUOUS
10
2.13565
20
-1.13521
11
2.134
21
-1.13881
0
LINE
8
BLACK
6
CONTINUOUS
10
2.134
20
-1.13881
11
2.13228
21
-1.14254
0
LINE
8
BLACK
6
CONTINUOUS
10
2.13228
20
-1.14254
11
2.11997
21
-1.16932
0
LINE
8
BLACK
6
CONTINUOUS
10
2.11997
20
-1.16932
11
2.11981
21
-1.17337
0
LINE
8
BLACK
6
CONTINUOUS
10
2.11981
20
-1.17337
11
2.11973
21
-1.17494
0
LINE
8
BLACK
6
CONTINUOUS
10
2.11973
20
-1.17494
11
2.11941
21
-1.17765
0
LINE
8
BLACK
6
CONTINUOUS
10
2.11941
20
-1.17765
11
2.11889
21
-1.1799
0
LINE
8
BLACK
6
CONTINUOUS
10
2.11889
20
-1.1799
11
2.11812
21
-1.18174
0
LINE
8
BLACK
6
CONTINUOUS
10
2.11812
20
-1.18174
11
2.11709
21
-1.18323
0
LINE
8
BLACK
6
CONTINUOUS
10
2.11709
20
-1.18323
11
2.11577
21
-1.18441
0
LINE
8
BLACK
6
CONTINUOUS
10
2.11577
20
-1.18441
11
2.11412
21
-1.18536
0
LINE
8
BLACK
6
CONTINUOUS
10
2.11412
20
-1.18536
11
2.11325
21
-1.18572
0
LINE
8
BLACK
6
CONTINUOUS
10
2.11325
20
-1.18572
11
2.11237
21
-1.18596
0
LINE
8
BLACK
6
CONTINUOUS
10
2.11237
20
-1.18596
11
2.11133
21
-1.18607
0
LINE
8
BLACK
6
CONTINUOUS
10
2.11133
20
-1.18607
11
2.10992
21
-1.18611
0
LINE
8
BLACK
6
CONTINUOUS
10
2.10992
20
-1.18611
11
2.10985
21
-1.18611
0
LINE
8
BLACK
6
CONTINUOUS
10
2.10985
20
-1.18611
11
2.10849
21
-1.18608
0
LINE
8
BLACK
6
CONTINUOUS
10
2.10849
20
-1.18608
11
2.10748
21
-1.18597
0
LINE
8
BLACK
6
CONTINUOUS
10
2.10748
20
-1.18597
11
2.10662
21
-1.18574
0
LINE
8
BLACK
6
CONTINUOUS
10
2.10662
20
-1.18574
11
2.10571
21
-1.18536
0
LINE
8
BLACK
6
CONTINUOUS
10
2.10571
20
-1.18536
11
2.10388
21
-1.1843
0
LINE
8
BLACK
6
CONTINUOUS
10
2.10388
20
-1.1843
11
2.10216
21
-1.18275
0
LINE
8
BLACK
6
CONTINUOUS
10
2.10216
20
-1.18275
11
2.10086
21
-1.18082
0
LINE
8
BLACK
6
CONTINUOUS
10
2.10086
20
-1.18082
11
2.09997
21
-1.17848
0
LINE
8
BLACK
6
CONTINUOUS
10
2.09997
20
-1.17848
11
2.09994
21
-1.17836
0
LINE
8
BLACK
6
CONTINUOUS
10
2.09994
20
-1.17836
11
2.09988
21
-1.178
0
LINE
8
BLACK
6
CONTINUOUS
10
2.09988
20
-1.178
11
2.09982
21
-1.17752
0
LINE
8
BLACK
6
CONTINUOUS
10
2.09982
20
-1.17752
11
2.09976
21
-1.17688
0
LINE
8
BLACK
6
CONTINUOUS
10
2.09976
20
-1.17688
11
2.09971
21
-1.17605
0
LINE
8
BLACK
6
CONTINUOUS
10
2.09971
20
-1.17605
11
2.09967
21
-1.17501
0
LINE
8
BLACK
6
CONTINUOUS
10
2.09967
20
-1.17501
11
2.09963
21
-1.1737
0
LINE
8
BLACK
6
CONTINUOUS
10
2.09963
20
-1.1737
11
2.0996
21
-1.17212
0
LINE
8
BLACK
6
CONTINUOUS
10
2.0996
20
-1.17212
11
2.09957
21
-1.17021
0
LINE
8
BLACK
6
CONTINUOUS
10
2.09957
20
-1.17021
11
2.09954
21
-1.16795
0
LINE
8
BLACK
6
CONTINUOUS
10
2.09954
20
-1.16795
11
2.09952
21
-1.16531
0
LINE
8
BLACK
6
CONTINUOUS
10
2.09952
20
-1.16531
11
2.0995
21
-1.16226
0
LINE
8
BLACK
6
CONTINUOUS
10
2.0995
20
-1.16226
11
2.09948
21
-1.15875
0
LINE
8
BLACK
6
CONTINUOUS
10
2.09948
20
-1.15875
11
2.09946
21
-1.15477
0
LINE
8
BLACK
6
CONTINUOUS
10
2.09946
20
-1.15477
11
2.09945
21
-1.15027
0
LINE
8
BLACK
6
CONTINUOUS
10
2.09945
20
-1.15027
11
2.09943
21
-1.14522
0
LINE
8
BLACK
6
CONTINUOUS
10
2.09943
20
-1.14522
11
2.09933
21
-1.11359
0
LINE
8
BLACK
6
CONTINUOUS
10
2.09933
20
-1.11359
11
2.08662
21
-1.11359
0
LINE
8
BLACK
6
CONTINUOUS
10
2.08662
20
-1.11359
11
2.0739
21
-1.11359
0
LINE
8
BLACK
6
CONTINUOUS
10
2.0739
20
-1.11359
11
2.0738
21
-1.14522
0
LINE
8
BLACK
6
CONTINUOUS
10
2.0738
20
-1.14522
11
2.0738
21
-1.14627
0
LINE
8
BLACK
6
CONTINUOUS
10
2.0738
20
-1.14627
11
2.07378
21
-1.15125
0
LINE
8
BLACK
6
CONTINUOUS
10
2.07378
20
-1.15125
11
2.07376
21
-1.1557
0
LINE
8
BLACK
6
CONTINUOUS
10
2.07376
20
-1.1557
11
2.07375
21
-1.15964
0
LINE
8
BLACK
6
CONTINUOUS
10
2.07375
20
-1.15964
11
2.07373
21
-1.16312
0
LINE
8
BLACK
6
CONTINUOUS
10
2.07373
20
-1.16312
11
2.07371
21
-1.16615
0
LINE
8
BLACK
6
CONTINUOUS
10
2.07371
20
-1.16615
11
2.07368
21
-1.16878
0
LINE
8
BLACK
6
CONTINUOUS
10
2.07368
20
-1.16878
11
2.07364
21
-1.17104
0
LINE
8
BLACK
6
CONTINUOUS
10
2.07364
20
-1.17104
11
2.0736
21
-1.17296
0
LINE
8
BLACK
6
CONTINUOUS
10
2.0736
20
-1.17296
11
2.07354
21
-1.17457
0
LINE
8
BLACK
6
CONTINUOUS
10
2.07354
20
-1.17457
11
2.07348
21
-1.17592
0
LINE
8
BLACK
6
CONTINUOUS
10
2.07348
20
-1.17592
11
2.0734
21
-1.17703
0
LINE
8
BLACK
6
CONTINUOUS
10
2.0734
20
-1.17703
11
2.0733
21
-1.17793
0
LINE
8
BLACK
6
CONTINUOUS
10
2.0733
20
-1.17793
11
2.07319
21
-1.17867
0
LINE
8
BLACK
6
CONTINUOUS
10
2.07319
20
-1.17867
11
2.07305
21
-1.17927
0
LINE
8
BLACK
6
CONTINUOUS
10
2.07305
20
-1.17927
11
2.0729
21
-1.17977
0
LINE
8
BLACK
6
CONTINUOUS
10
2.0729
20
-1.17977
11
2.07273
21
-1.1802
0
LINE
8
BLACK
6
CONTINUOUS
10
2.07273
20
-1.1802
11
2.07253
21
-1.18059
0
LINE
8
BLACK
6
CONTINUOUS
10
2.07253
20
-1.18059
11
2.0723
21
-1.18098
0
LINE
8
BLACK
6
CONTINUOUS
10
2.0723
20
-1.18098
11
2.07205
21
-1.1814
0
LINE
8
BLACK
6
CONTINUOUS
10
2.07205
20
-1.1814
11
2.07202
21
-1.18147
0
LINE
8
BLACK
6
CONTINUOUS
10
2.07202
20
-1.18147
11
2.0708
21
-1.18306
0
LINE
8
BLACK
6
CONTINUOUS
10
2.0708
20
-1.18306
11
2.06924
21
-1.18446
0
LINE
8
BLACK
6
CONTINUOUS
10
2.06924
20
-1.18446
11
2.06754
21
-1.18549
0
LINE
8
BLACK
6
CONTINUOUS
10
2.06754
20
-1.18549
11
2.06692
21
-1.18574
0
LINE
8
BLACK
6
CONTINUOUS
10
2.06692
20
-1.18574
11
2.06604
21
-1.18596
0
LINE
8
BLACK
6
CONTINUOUS
10
2.06604
20
-1.18596
11
2.06494
21
-1.18607
0
LINE
8
BLACK
6
CONTINUOUS
10
2.06494
20
-1.18607
11
2.06345
21
-1.1861
0
LINE
8
BLACK
6
CONTINUOUS
10
2.06345
20
-1.1861
11
2.06267
21
-1.18608
0
LINE
8
BLACK
6
CONTINUOUS
10
2.06267
20
-1.18608
11
2.06071
21
-1.18588
0
LINE
8
BLACK
6
CONTINUOUS
10
2.06071
20
-1.18588
11
2.05909
21
-1.18539
0
LINE
8
BLACK
6
CONTINUOUS
10
2.05909
20
-1.18539
11
2.05769
21
-1.18455
0
LINE
8
BLACK
6
CONTINUOUS
10
2.05769
20
-1.18455
11
2.05635
21
-1.18332
0
LINE
8
BLACK
6
CONTINUOUS
10
2.05635
20
-1.18332
11
2.05583
21
-1.18274
0
LINE
8
BLACK
6
CONTINUOUS
10
2.05583
20
-1.18274
11
2.05477
21
-1.18119
0
LINE
8
BLACK
6
CONTINUOUS
10
2.05477
20
-1.18119
11
2.05406
21
-1.17947
0
LINE
8
BLACK
6
CONTINUOUS
10
2.05406
20
-1.17947
11
2.05362
21
-1.1774
0
LINE
8
BLACK
6
CONTINUOUS
10
2.05362
20
-1.1774
11
2.05358
21
-1.17685
0
LINE
8
BLACK
6
CONTINUOUS
10
2.05358
20
-1.17685
11
2.05353
21
-1.17573
0
LINE
8
BLACK
6
CONTINUOUS
10
2.05353
20
-1.17573
11
2.05349
21
-1.17406
0
LINE
8
BLACK
6
CONTINUOUS
10
2.05349
20
-1.17406
11
2.05346
21
-1.17189
0
LINE
8
BLACK
6
CONTINUOUS
10
2.05346
20
-1.17189
11
2.05342
21
-1.16924
0
LINE
8
BLACK
6
CONTINUOUS
10
2.05342
20
-1.16924
11
2.05339
21
-1.16613
0
LINE
8
BLACK
6
CONTINUOUS
10
2.05339
20
-1.16613
11
2.05337
21
-1.16258
0
LINE
8
BLACK
6
CONTINUOUS
10
2.05337
20
-1.16258
11
2.05335
21
-1.15861
0
LINE
8
BLACK
6
CONTINUOUS
10
2.05335
20
-1.15861
11
2.05334
21
-1.15426
0
LINE
8
BLACK
6
CONTINUOUS
10
2.05334
20
-1.15426
11
2.05333
21
-1.14955
0
LINE
8
BLACK
6
CONTINUOUS
10
2.05333
20
-1.14955
11
2.05333
21
-1.14449
0
LINE
8
BLACK
6
CONTINUOUS
10
2.05333
20
-1.14449
11
2.05332
21
-1.11359
0
LINE
8
BLACK
6
CONTINUOUS
10
2.05332
20
-1.11359
11
2.04042
21
-1.11359
0
LINE
8
BLACK
6
CONTINUOUS
10
2.04042
20
-1.11359
11
2.02752
21
-1.11359
0
LINE
8
BLACK
6
CONTINUOUS
10
2.02752
20
-1.11359
11
2.02763
21
-1.14565
0
LINE
8
BLACK
6
CONTINUOUS
10
2.02763
20
-1.14565
11
2.02763
21
-1.1466
0
LINE
8
BLACK
6
CONTINUOUS
10
2.02763
20
-1.1466
11
2.02765
21
-1.1517
0
LINE
8
BLACK
6
CONTINUOUS
10
2.02765
20
-1.1517
11
2.02766
21
-1.15626
0
LINE
8
BLACK
6
CONTINUOUS
10
2.02766
20
-1.15626
11
2.02768
21
-1.16031
0
LINE
8
BLACK
6
CONTINUOUS
10
2.02768
20
-1.16031
11
2.0277
21
-1.1639
0
LINE
8
BLACK
6
CONTINUOUS
10
2.0277
20
-1.1639
11
2.02773
21
-1.16706
0
LINE
8
BLACK
6
CONTINUOUS
10
2.02773
20
-1.16706
11
2.02776
21
-1.16983
0
LINE
8
BLACK
6
CONTINUOUS
10
2.02776
20
-1.16983
11
2.0278
21
-1.17224
0
LINE
8
BLACK
6
CONTINUOUS
10
2.0278
20
-1.17224
11
2.02785
21
-1.17432
0
LINE
8
BLACK
6
CONTINUOUS
10
2.02785
20
-1.17432
11
2.02791
21
-1.17612
0
LINE
8
BLACK
6
CONTINUOUS
10
2.02791
20
-1.17612
11
2.02798
21
-1.17767
0
LINE
8
BLACK
6
CONTINUOUS
10
2.02798
20
-1.17767
11
2.02807
21
-1.17901
0
LINE
8
BLACK
6
CONTINUOUS
10
2.02807
20
-1.17901
11
2.02817
21
-1.18016
0
LINE
8
BLACK
6
CONTINUOUS
10
2.02817
20
-1.18016
11
2.02829
21
-1.18117
0
LINE
8
BLACK
6
CONTINUOUS
10
2.02829
20
-1.18117
11
2.02843
21
-1.18207
0
LINE
8
BLACK
6
CONTINUOUS
10
2.02843
20
-1.18207
11
2.02859
21
-1.1829
0
LINE
8
BLACK
6
CONTINUOUS
10
2.02859
20
-1.1829
11
2.02877
21
-1.18369
0
LINE
8
BLACK
6
CONTINUOUS
10
2.02877
20
-1.18369
11
2.02898
21
-1.18448
0
LINE
8
BLACK
6
CONTINUOUS
10
2.02898
20
-1.18448
11
2.02921
21
-1.18531
0
LINE
8
BLACK
6
CONTINUOUS
10
2.02921
20
-1.18531
11
2.02947
21
-1.18621
0
LINE
8
BLACK
6
CONTINUOUS
10
2.02947
20
-1.18621
11
2.03048
21
-1.18911
0
LINE
8
BLACK
6
CONTINUOUS
10
2.03048
20
-1.18911
11
2.03226
21
-1.19275
0
LINE
8
BLACK
6
CONTINUOUS
10
2.03226
20
-1.19275
11
2.03453
21
-1.19623
0
LINE
8
BLACK
6
CONTINUOUS
10
2.03453
20
-1.19623
11
2.03724
21
-1.19949
0
LINE
8
BLACK
6
CONTINUOUS
10
2.03724
20
-1.19949
11
2.04034
21
-1.20245
0
LINE
8
BLACK
6
CONTINUOUS
10
2.04034
20
-1.20245
11
2.04378
21
-1.20505
0
LINE
8
BLACK
6
CONTINUOUS
10
2.04378
20
-1.20505
11
2.04534
21
-1.20605
0
LINE
8
BLACK
6
CONTINUOUS
10
2.04534
20
-1.20605
11
2.0495
21
-1.20825
0
LINE
8
BLACK
6
CONTINUOUS
10
2.0495
20
-1.20825
11
2.05381
21
-1.20991
0
LINE
8
BLACK
6
CONTINUOUS
10
2.05381
20
-1.20991
11
2.05822
21
-1.21103
0
LINE
8
BLACK
6
CONTINUOUS
10
2.05822
20
-1.21103
11
2.06269
21
-1.2116
0
LINE
8
BLACK
6
CONTINUOUS
10
2.06269
20
-1.2116
11
2.06718
21
-1.21164
0
LINE
8
BLACK
6
CONTINUOUS
10
2.06718
20
-1.21164
11
2.07166
21
-1.21113
0
LINE
8
BLACK
6
CONTINUOUS
10
2.07166
20
-1.21113
11
2.07607
21
-1.21007
0
LINE
8
BLACK
6
CONTINUOUS
10
2.07607
20
-1.21007
11
2.08038
21
-1.20847
0
LINE
8
BLACK
6
CONTINUOUS
10
2.08038
20
-1.20847
11
2.08455
21
-1.20632
0
LINE
8
BLACK
6
CONTINUOUS
10
2.08455
20
-1.20632
11
2.08676
21
-1.20501
0
LINE
8
BLACK
6
CONTINUOUS
10
2.08676
20
-1.20501
11
2.08777
21
-1.20563
0
LINE
8
BLACK
6
CONTINUOUS
10
2.08777
20
-1.20563
11
2.08915
21
-1.20643
0
LINE
8
BLACK
6
CONTINUOUS
10
2.08915
20
-1.20643
11
2.0929
21
-1.20831
0
LINE
8
BLACK
6
CONTINUOUS
10
2.0929
20
-1.20831
11
2.09675
21
-1.20982
0
LINE
8
BLACK
6
CONTINUOUS
10
2.09675
20
-1.20982
11
2.10051
21
-1.2109
0
LINE
8
BLACK
6
CONTINUOUS
10
2.10051
20
-1.2109
11
2.10133
21
-1.21105
0
LINE
8
BLACK
6
CONTINUOUS
10
2.10133
20
-1.21105
11
2.10277
21
-1.21124
0
LINE
8
BLACK
6
CONTINUOUS
10
2.10277
20
-1.21124
11
2.10447
21
-1.2114
0
LINE
8
BLACK
6
CONTINUOUS
10
2.10447
20
-1.2114
11
2.1063
21
-1.21154
0
LINE
8
BLACK
6
CONTINUOUS
10
2.1063
20
-1.21154
11
2.10812
21
-1.21163
0
LINE
8
BLACK
6
CONTINUOUS
10
2.10812
20
-1.21163
11
2.10978
21
-1.21167
0
LINE
8
BLACK
6
CONTINUOUS
10
2.10978
20
-1.21167
11
2.11116
21
-1.21165
0
LINE
8
BLACK
6
CONTINUOUS
10
2.11116
20
-1.21165
11
2.11209
21
-1.21157
0
LINE
8
BLACK
6
CONTINUOUS
10
2.11209
20
-1.21157
11
2.11272
21
-1.21147
0
LINE
8
BLACK
6
CONTINUOUS
10
2.11272
20
-1.21147
11
2.11371
21
-1.21131
0
LINE
8
BLACK
6
CONTINUOUS
10
2.11371
20
-1.21131
11
2.11484
21
-1.21113
0
LINE
8
BLACK
6
CONTINUOUS
10
2.11484
20
-1.21113
11
2.11564
21
-1.21098
0
LINE
8
BLACK
6
CONTINUOUS
10
2.11564
20
-1.21098
11
2.1186
21
-1.21023
0
LINE
8
BLACK
6
CONTINUOUS
10
2.1186
20
-1.21023
11
2.12173
21
-1.20914
0
LINE
8
BLACK
6
CONTINUOUS
10
2.12173
20
-1.20914
11
2.12489
21
-1.20777
0
LINE
8
BLACK
6
CONTINUOUS
10
2.12489
20
-1.20777
11
2.12789
21
-1.2062
0
LINE
8
BLACK
6
CONTINUOUS
10
2.12789
20
-1.2062
11
2.1306
21
-1.20448
0
LINE
8
BLACK
6
CONTINUOUS
10
2.1306
20
-1.20448
11
2.13221
21
-1.20327
0
LINE
8
BLACK
6
CONTINUOUS
10
2.13221
20
-1.20327
11
2.1353
21
-1.20041
0
LINE
8
BLACK
6
CONTINUOUS
10
2.1353
20
-1.20041
11
2.13806
21
-1.19715
0
LINE
8
BLACK
6
CONTINUOUS
10
2.13806
20
-1.19715
11
2.14044
21
-1.19357
0
LINE
8
BLACK
6
CONTINUOUS
10
2.14044
20
-1.19357
11
2.14237
21
-1.18973
0
LINE
8
BLACK
6
CONTINUOUS
10
2.14237
20
-1.18973
11
2.1438
21
-1.18573
0
LINE
8
BLACK
6
CONTINUOUS
10
2.1438
20
-1.18573
11
2.14392
21
-1.18531
0
LINE
8
BLACK
6
CONTINUOUS
10
2.14392
20
-1.18531
11
2.14416
21
-1.18448
0
LINE
8
BLACK
6
CONTINUOUS
10
2.14416
20
-1.18448
11
2.14437
21
-1.18371
0
LINE
8
BLACK
6
CONTINUOUS
10
2.14437
20
-1.18371
11
2.14456
21
-1.18297
0
LINE
8
BLACK
6
CONTINUOUS
10
2.14456
20
-1.18297
11
2.14473
21
-1.18222
0
LINE
8
BLACK
6
CONTINUOUS
10
2.14473
20
-1.18222
11
2.14488
21
-1.18143
0
LINE
8
BLACK
6
CONTINUOUS
10
2.14488
20
-1.18143
11
2.145
21
-1.18057
0
LINE
8
BLACK
6
CONTINUOUS
10
2.145
20
-1.18057
11
2.14511
21
-1.17959
0
LINE
8
BLACK
6
CONTINUOUS
10
2.14511
20
-1.17959
11
2.1452
21
-1.17847
0
LINE
8
BLACK
6
CONTINUOUS
10
2.1452
20
-1.17847
11
2.14528
21
-1.17716
0
LINE
8
BLACK
6
CONTINUOUS
10
2.14528
20
-1.17716
11
2.14534
21
-1.17563
0
LINE
8
BLACK
6
CONTINUOUS
10
2.14534
20
-1.17563
11
2.14539
21
-1.17384
0
LINE
8
BLACK
6
CONTINUOUS
10
2.14539
20
-1.17384
11
2.14543
21
-1.17176
0
LINE
8
BLACK
6
CONTINUOUS
10
2.14543
20
-1.17176
11
2.14547
21
-1.16936
0
LINE
8
BLACK
6
CONTINUOUS
10
2.14547
20
-1.16936
11
2.14549
21
-1.16658
0
LINE
8
BLACK
6
CONTINUOUS
10
2.14549
20
-1.16658
11
2.14551
21
-1.16341
0
LINE
8
BLACK
6
CONTINUOUS
10
2.14551
20
-1.16341
11
2.14553
21
-1.15981
0
LINE
8
BLACK
6
CONTINUOUS
10
2.14553
20
-1.15981
11
2.14554
21
-1.15573
0
LINE
8
BLACK
6
CONTINUOUS
10
2.14554
20
-1.15573
11
2.14556
21
-1.15114
0
LINE
8
BLACK
6
CONTINUOUS
10
2.14556
20
-1.15114
11
2.14557
21
-1.14601
0
LINE
8
BLACK
6
CONTINUOUS
10
2.14557
20
-1.14601
11
2.14558
21
-1.14148
0
LINE
8
BLACK
6
CONTINUOUS
10
2.14558
20
-1.14148
11
2.1456
21
-1.13696
0
LINE
8
BLACK
6
CONTINUOUS
10
2.1456
20
-1.13696
11
2.14561
21
-1.13297
0
LINE
8
BLACK
6
CONTINUOUS
10
2.14561
20
-1.13297
11
2.14561
21
-1.12947
0
LINE
8
BLACK
6
CONTINUOUS
10
2.14561
20
-1.12947
11
2.14562
21
-1.12642
0
CIRCLE
8
BLACK
10
2.18504
20
-1.39911
40
0.00688976
0
CIRCLE
8
BLACK
10
2.08504
20
-1.39911
40
0.00688976
0
CIRCLE
8
BLACK
10
1.98504
20
-1.39911
40
0.00688976
0
CIRCLE
8
BLACK
10
1.88504
20
-1.39911
40
0.00688976
0
CIRCLE
8
BLACK
10
1.18307
20
-1.57234
40
0.00688976
0
CIRCLE
8
BLACK
10
1.2815
20
-1.57234
40
0.00688976
0
CIRCLE
8
BLACK
10
1.2815
20
-1.4936
40
0.00688976
0
CIRCLE
8
BLACK
10
1.18307
20
-1.4936
40
0.00688976
0
CIRCLE
8
BLACK
10
0.996063
20
-1.381
40
0.00688976
0
CIRCLE
8
BLACK
10
1.4685
20
-1.381
40
0.00688976
0
CIRCLE
8
BLACK
10
0.996063
20
-1.20226
40
0.00688976
0
CIRCLE
8
BLACK
10
1.4685
20
-1.20226
40
0.00688976
0
CIRCLE
8
BLACK
10
1.67323
20
-1.12549
40
0.0590551
0
LINE
8
BLACK
6
CONTINUOUS
10
2.25591
20
-0.973917
11
2.2573
21
-0.974494
0
LINE
8
BLACK
6
CONTINUOUS
10
2.2573
20
-0.974494
11
2.25787
21
-0.975886
0
LINE
8
BLACK
6
CONTINUOUS
10
2.25787
20
-0.975886
11
2.25787
21
-1.6314
0
LINE
8
BLACK
6
CONTINUOUS
10
2.25787
20
-1.6314
11
2.2573
21
-1.63279
0
LINE
8
BLACK
6
CONTINUOUS
10
2.2573
20
-1.63279
11
2.25591
21
-1.63337
0
LINE
8
BLACK
6
CONTINUOUS
10
2.25591
20
-1.63337
11
0.846457
21
-1.63337
0
LINE
8
BLACK
6
CONTINUOUS
10
0.846457
20
-1.63337
11
0.845065
21
-1.63279
0
LINE
8
BLACK
6
CONTINUOUS
10
0.845065
20
-1.63279
11
0.844488
21
-1.6314
0
LINE
8
BLACK
6
CONTINUOUS
10
0.844488
20
-1.6314
11
0.844488
21
-0.975886
0
LINE
8
BLACK
6
CONTINUOUS
10
0.844488
20
-0.975886
11
0.845065
21
-0.974494
0
LINE
8
BLACK
6
CONTINUOUS
10
0.845065
20
-0.974494
11
0.846457
21
-0.973917
0
LINE
8
BLACK
6
CONTINUOUS
10
0.846457
20
-0.973917
11
2.25591
21
-0.973917
0
LINE
8
BLACK
6
CONTINUOUS
10
0.848425
20
-0.977854
11
0.848425
21
-1.62943
0
LINE
8
BLACK
6
CONTINUOUS
10
0.848425
20
-1.62943
11
2.25394
21
-1.62943
0
LINE
8
BLACK
6
CONTINUOUS
10
2.25394
20
-1.62943
11
2.25394
21
-0.977854
0
LINE
8
BLACK
6
CONTINUOUS
10
2.25394
20
-0.977854
11
0.848425
21
-0.977854
  0
ENDSEC
  0
EOF
